<svg width="512" height="512" viewBox="0 0 512 512" fill="none" xmlns="http://www.w3.org/2000/svg">
<g clip-path="url(#clip0_2_2)">
<circle cx="257.5" cy="285.5" r="184" stroke="url(#paint0_linear_2_2)" stroke-width="35"/>
<path fill-rule="evenodd" clip-rule="evenodd" d="M423.377 301C416.03 386.166 344.57 453 257.5 453C170.43 453 98.9698 386.166 91.6226 301H56.5137C63.9455 405.517 151.09 488 257.5 488C363.91 488 451.054 405.517 458.486 301H423.377ZM91.7119 271C99.5299 186.312 170.771 120 257.5 120C344.229 120 415.47 186.312 423.288 271H458.413C450.498 166.957 363.57 85 257.5 85C151.43 85 64.502 166.957 56.5873 271H91.7119Z" fill="#999999"/>
<path fill-rule="evenodd" clip-rule="evenodd" d="M420.421 301C404.534 376.4 337.627 433 257.5 433C177.373 433 110.466 376.4 94.5788 301H58.942C75.3064 395.848 157.977 468 257.5 468C357.023 468 439.694 395.848 456.058 301H420.421ZM91.0596 271C91.02 269.505 91 268.005 91 266.5C91 174.545 165.545 100 257.5 100C349.455 100 424 174.545 424 266.5C424 268.005 423.98 269.505 423.94 271H458.951C458.984 269.504 459 268.004 459 266.5C459 155.215 368.785 65 257.5 65C146.215 65 56 155.215 56 266.5C56 268.004 56.0165 269.504 56.0493 271H91.0596Z" fill="url(#paint1_linear_2_2)"/>
<path d="M161.005 320.115L207.04 285.63C213.42 280.9 218.095 276.06 221.065 271.11C224.035 266.05 225.52 260.605 225.52 254.775C225.52 247.405 223.43 241.63 219.25 237.45C215.07 233.16 209.295 231.015 201.925 231.015C194.995 231.015 189.33 233.16 184.93 237.45C180.53 241.74 177.45 248.01 175.69 256.26H157.54C157.98 247.35 160.18 239.705 164.14 233.325C168.21 226.835 173.49 221.885 179.98 218.475C186.58 215.065 193.895 213.36 201.925 213.36C210.505 213.36 217.93 215.12 224.2 218.64C230.58 222.05 235.53 226.835 239.05 232.995C242.57 239.155 244.33 246.415 244.33 254.775C244.33 263.355 242.13 271.33 237.73 278.7C233.33 286.07 226.675 293 217.765 299.49L177.01 328.695V330.345H241.69V348H161.005V320.115ZM273.733 348V216H310.693C328.513 216 341.878 221.555 350.788 232.665C359.808 243.665 364.318 260.11 364.318 282C364.318 303.89 359.808 320.39 350.788 331.5C341.878 342.5 328.513 348 310.693 348H273.733ZM292.543 330.345H310.693C322.353 330.345 331.043 326.385 336.763 318.465C342.593 310.435 345.508 298.28 345.508 282C345.508 265.61 342.593 253.455 336.763 245.535C331.043 237.615 322.353 233.655 310.693 233.655H292.543V330.345Z" fill="url(#paint2_linear_2_2)"/>
<path d="M115.5 33.5H144.5V96.3846L192.949 60.3154L209.583 85.5726L155.279 126L209.583 166.427L192.949 191.684L144.5 155.615V218.5H115.5V155.615L67.0503 191.684L50.4165 166.427L104.719 126L50.4163 85.5727L67.0501 60.3154L115.5 96.3846V33.5Z" fill="#405758"/>
<path d="M115.5 35H144.5V94.1455L192.949 60.221L209.583 83.9764L155.279 122L209.583 160.023L192.949 183.779L144.5 149.854V209H115.5V149.854L67.0503 183.779L50.4165 160.023L104.719 122L50.4163 83.9765L67.0501 60.221L115.5 94.1455V35Z" fill="url(#paint3_linear_2_2)"/>
</g>
<defs>
<linearGradient id="paint0_linear_2_2" x1="257.5" y1="84" x2="257.5" y2="487" gradientUnits="userSpaceOnUse">
<stop stop-color="#999999" stop-opacity="0"/>
<stop offset="0.25" stop-color="#999999" stop-opacity="0"/>
<stop offset="0.25" stop-color="#999999"/>
<stop offset="0.5" stop-color="#999999"/>
<stop offset="0.501" stop-color="#333333" stop-opacity="0"/>
</linearGradient>
<linearGradient id="paint1_linear_2_2" x1="257.5" y1="65" x2="257.5" y2="468" gradientUnits="userSpaceOnUse">
<stop offset="0.54" stop-color="white"/>
<stop offset="1" stop-color="#999999"/>
</linearGradient>
<linearGradient id="paint2_linear_2_2" x1="258.388" y1="218" x2="258.388" y2="346.889" gradientUnits="userSpaceOnUse">
<stop offset="0.62586" stop-color="white"/>
<stop offset="1" stop-color="#999999"/>
</linearGradient>
<linearGradient id="paint3_linear_2_2" x1="130" y1="35" x2="130" y2="209" gradientUnits="userSpaceOnUse">
<stop offset="0.31" stop-color="#71BCBE"/>
<stop offset="0.52" stop-color="#71BCBE"/>
<stop offset="0.955" stop-color="#355758"/>
</linearGradient>
<clipPath id="clip0_2_2">
<rect width="512" height="512" fill="white"/>
</clipPath>
</defs>
</svg>
