<svg width="1920" height="1080" viewBox="0 0 1920 1080" fill="none" xmlns="http://www.w3.org/2000/svg">
<rect width="1920" height="1080" fill="#111111"/>
<path d="M694.881 172.64C695.901 175.94 697.641 178.46 700.101 180.2C702.561 181.94 705.711 182.81 709.551 182.81C713.751 182.81 717.051 181.76 719.451 179.66C721.851 177.56 723.051 174.65 723.051 170.93C723.051 168.23 722.151 166.01 720.351 164.27C718.611 162.47 716.091 161.33 712.791 160.85L704.871 159.68C698.631 158.6 693.921 156.35 690.741 152.93C687.561 149.51 685.971 144.92 685.971 139.16C685.971 134.78 686.961 131 688.941 127.82C690.981 124.58 693.801 122.06 697.401 120.26C701.061 118.46 705.291 117.56 710.091 117.56C714.891 117.56 719.091 118.43 722.691 120.17C726.291 121.91 729.111 124.4 731.151 127.64C733.251 130.82 734.451 134.66 734.751 139.16H725.031C724.071 135.32 722.331 132.38 719.811 130.34C717.291 128.24 714.051 127.19 710.091 127.19C705.711 127.19 702.261 128.27 699.741 130.43C697.281 132.53 696.051 135.44 696.051 139.16C696.051 141.92 696.921 144.17 698.661 145.91C700.461 147.65 702.981 148.79 706.221 149.33L714.141 150.5C720.441 151.52 725.181 153.77 728.361 157.25C731.541 160.67 733.131 165.23 733.131 170.93C733.131 175.31 732.141 179.12 730.161 182.36C728.241 185.54 725.511 188.03 721.971 189.83C718.431 191.57 714.291 192.44 709.551 192.44C704.751 192.44 700.551 191.66 696.951 190.1C693.411 188.48 690.591 186.2 688.491 183.26C686.451 180.26 685.311 176.72 685.071 172.64H694.881ZM756.548 158.51H789.038L785.708 163.19C785.708 157.13 784.628 152.51 782.468 149.33C780.308 146.15 777.158 144.56 773.018 144.56C768.518 144.56 765.008 146.24 762.488 149.6C759.968 152.9 758.708 157.55 758.708 163.55C758.708 169.97 759.968 174.89 762.488 178.31C765.008 181.73 768.608 183.44 773.288 183.44C776.348 183.44 779.018 182.69 781.298 181.19C783.578 179.63 785.498 177.38 787.058 174.44H796.328C795.428 178.16 793.898 181.37 791.738 184.07C789.638 186.77 786.998 188.84 783.818 190.28C780.698 191.72 777.188 192.44 773.288 192.44C768.248 192.44 763.898 191.3 760.238 189.02C756.638 186.74 753.878 183.44 751.958 179.12C750.038 174.8 749.078 169.61 749.078 163.55C749.078 157.79 750.038 152.84 751.958 148.7C753.938 144.5 756.728 141.26 760.328 138.98C763.928 136.7 768.158 135.56 773.018 135.56C777.638 135.56 781.568 136.64 784.808 138.8C788.048 140.96 790.538 144.11 792.278 148.25C794.018 152.33 794.888 157.28 794.888 163.1C794.888 163.76 794.858 164.45 794.798 165.17C794.798 165.89 794.768 166.58 794.708 167.24H756.548V158.51ZM812.006 137H833.066V140.96H835.766C836.846 139.22 838.316 137.9 840.176 137C842.036 136.04 844.166 135.56 846.566 135.56C850.886 135.56 854.306 137.09 856.826 140.15C859.346 143.15 860.606 147.29 860.606 152.57V160.4H850.346V154.01C850.346 147.95 847.886 144.92 842.966 144.92C839.846 144.92 837.506 146.33 835.946 149.15C834.446 151.91 833.696 156.05 833.696 161.57V181.73H850.436V191H813.626V181.73H823.796V146.27H812.006V137ZM872.504 137H883.034L897.884 182.09H898.784L913.544 137H923.444L905.534 191H890.414L872.504 137ZM942.541 137H968.821V181.73H985.111V191H942.541V181.73H958.921V146.27H942.541V137ZM963.151 128.99C960.811 128.99 958.981 128.36 957.661 127.1C956.341 125.78 955.681 123.98 955.681 121.7C955.681 119.42 956.341 117.65 957.661 116.39C958.981 115.07 960.811 114.41 963.151 114.41C965.491 114.41 967.321 115.07 968.641 116.39C969.961 117.65 970.621 119.42 970.621 121.7C970.621 123.98 969.961 125.78 968.641 127.1C967.321 128.36 965.491 128.99 963.151 128.99ZM1025.27 192.44C1020.35 192.44 1016.09 191.3 1012.49 189.02C1008.89 186.74 1006.1 183.5 1004.12 179.3C1002.14 175.04 1001.15 170.03 1001.15 164.27C1001.15 158.39 1002.17 153.32 1004.21 149.06C1006.25 144.74 1009.13 141.41 1012.85 139.07C1016.63 136.73 1021.07 135.56 1026.17 135.56C1030.61 135.56 1034.51 136.49 1037.87 138.35C1041.23 140.15 1043.87 142.73 1045.79 146.09C1047.71 149.39 1048.76 153.32 1048.94 157.88H1039.85C1039.07 153.74 1037.45 150.53 1034.99 148.25C1032.59 145.97 1029.53 144.83 1025.81 144.83C1021.07 144.83 1017.41 146.54 1014.83 149.96C1012.25 153.38 1010.96 158.15 1010.96 164.27C1010.96 170.21 1012.22 174.86 1014.74 178.22C1017.26 181.52 1020.77 183.17 1025.27 183.17C1028.63 183.17 1031.45 182.18 1033.73 180.2C1036.07 178.16 1037.69 175.34 1038.59 171.74H1047.68C1047.38 175.94 1046.24 179.6 1044.26 182.72C1042.28 185.78 1039.64 188.18 1036.34 189.92C1033.1 191.6 1029.41 192.44 1025.27 192.44ZM1071.64 158.51H1104.13L1100.8 163.19C1100.8 157.13 1099.72 152.51 1097.56 149.33C1095.4 146.15 1092.25 144.56 1088.11 144.56C1083.61 144.56 1080.1 146.24 1077.58 149.6C1075.06 152.9 1073.8 157.55 1073.8 163.55C1073.8 169.97 1075.06 174.89 1077.58 178.31C1080.1 181.73 1083.7 183.44 1088.38 183.44C1091.44 183.44 1094.11 182.69 1096.39 181.19C1098.67 179.63 1100.59 177.38 1102.15 174.44H1111.42C1110.52 178.16 1108.99 181.37 1106.83 184.07C1104.73 186.77 1102.09 188.84 1098.91 190.28C1095.79 191.72 1092.28 192.44 1088.38 192.44C1083.34 192.44 1078.99 191.3 1075.33 189.02C1071.73 186.74 1068.97 183.44 1067.05 179.12C1065.13 174.8 1064.17 169.61 1064.17 163.55C1064.17 157.79 1065.13 152.84 1067.05 148.7C1069.03 144.5 1071.82 141.26 1075.42 138.98C1079.02 136.7 1083.25 135.56 1088.11 135.56C1092.73 135.56 1096.66 136.64 1099.9 138.8C1103.14 140.96 1105.63 144.11 1107.37 148.25C1109.11 152.33 1109.98 157.28 1109.98 163.1C1109.98 163.76 1109.95 164.45 1109.89 165.17C1109.89 165.89 1109.86 166.58 1109.8 167.24H1071.64V158.51ZM1137.53 174.44C1138.37 177.26 1139.9 179.42 1142.12 180.92C1144.34 182.42 1147.19 183.17 1150.67 183.17C1154.27 183.17 1157.03 182.54 1158.95 181.28C1160.87 179.96 1161.83 178.1 1161.83 175.7C1161.83 174.08 1161.05 172.73 1159.49 171.65C1157.93 170.57 1155.62 169.82 1152.56 169.4L1145.99 168.41C1140.11 167.51 1135.76 165.77 1132.94 163.19C1130.12 160.61 1128.71 157.01 1128.71 152.39C1128.71 147.17 1130.63 143.06 1134.47 140.06C1138.37 137.06 1143.71 135.56 1150.49 135.56C1157.39 135.56 1162.85 137.24 1166.87 140.6C1170.89 143.96 1173.02 148.64 1173.26 154.64H1164.26C1163.42 151.46 1161.83 149.03 1159.49 147.35C1157.15 145.67 1154.09 144.83 1150.31 144.83C1146.53 144.83 1143.62 145.49 1141.58 146.81C1139.54 148.07 1138.52 149.9 1138.52 152.3C1138.52 153.92 1139.3 155.27 1140.86 156.35C1142.42 157.43 1144.73 158.18 1147.79 158.6L1154.36 159.59C1160.3 160.49 1164.65 162.23 1167.41 164.81C1170.23 167.39 1171.64 170.99 1171.64 175.61C1171.64 179.09 1170.77 182.09 1169.03 184.61C1167.35 187.13 1164.95 189.08 1161.83 190.46C1158.71 191.78 1154.96 192.44 1150.58 192.44C1143.86 192.44 1138.55 190.85 1134.65 187.67C1130.81 184.49 1128.71 180.08 1128.35 174.44H1137.53ZM1207.93 119H1218.19V170.3H1207.93V119ZM1213.06 191.54C1210.6 191.54 1208.68 190.94 1207.3 189.74C1205.98 188.48 1205.32 186.74 1205.32 184.52C1205.32 182.24 1205.98 180.47 1207.3 179.21C1208.68 177.95 1210.6 177.32 1213.06 177.32C1215.52 177.32 1217.41 177.95 1218.73 179.21C1220.11 180.47 1220.8 182.24 1220.8 184.52C1220.8 186.74 1220.11 188.48 1218.73 189.74C1217.41 190.94 1215.52 191.54 1213.06 191.54Z" fill="white"/>
<path d="M664 262.5C659.858 262.5 656.5 265.858 656.5 270C656.5 274.142 659.858 277.5 664 277.5V262.5ZM1282.33 270L1239.03 226.699L1195.73 270L1239.03 313.301L1282.33 270ZM664 277.5H1239.03V262.5H664V277.5Z" fill="white"/>
<path d="M234.958 430H270.042V497.304L328.654 458.7L348.778 485.732L283.082 529L348.778 572.268L328.654 599.3L270.042 560.696V628H234.958V560.696L176.345 599.3L156.222 572.268L221.916 529L156.222 485.732L176.345 458.7L234.958 497.304V430Z" fill="#71BCBE"/>
<path d="M125.572 670.74C126.309 673.123 127.565 674.943 129.342 676.2C131.119 677.457 133.394 678.085 136.167 678.085C139.2 678.085 141.584 677.327 143.317 675.81C145.05 674.293 145.917 672.192 145.917 669.505C145.917 667.555 145.267 665.952 143.967 664.695C142.71 663.395 140.89 662.572 138.507 662.225L132.787 661.38C128.28 660.6 124.879 658.975 122.582 656.505C120.285 654.035 119.137 650.72 119.137 646.56C119.137 643.397 119.852 640.667 121.282 638.37C122.755 636.03 124.792 634.21 127.392 632.91C130.035 631.61 133.09 630.96 136.557 630.96C140.024 630.96 143.057 631.588 145.657 632.845C148.257 634.102 150.294 635.9 151.767 638.24C153.284 640.537 154.15 643.31 154.367 646.56H147.347C146.654 643.787 145.397 641.663 143.577 640.19C141.757 638.673 139.417 637.915 136.557 637.915C133.394 637.915 130.902 638.695 129.082 640.255C127.305 641.772 126.417 643.873 126.417 646.56C126.417 648.553 127.045 650.178 128.302 651.435C129.602 652.692 131.422 653.515 133.762 653.905L139.482 654.75C144.032 655.487 147.455 657.112 149.752 659.625C152.049 662.095 153.197 665.388 153.197 669.505C153.197 672.668 152.482 675.42 151.052 677.76C149.665 680.057 147.694 681.855 145.137 683.155C142.58 684.412 139.59 685.04 136.167 685.04C132.7 685.04 129.667 684.477 127.067 683.35C124.51 682.18 122.474 680.533 120.957 678.41C119.484 676.243 118.66 673.687 118.487 670.74H125.572ZM182.135 685.04C178.581 685.04 175.505 684.217 172.905 682.57C170.305 680.923 168.29 678.583 166.86 675.55C165.43 672.473 164.715 668.855 164.715 664.695C164.715 660.448 165.451 656.787 166.925 653.71C168.398 650.59 170.478 648.185 173.165 646.495C175.895 644.805 179.101 643.96 182.785 643.96C185.991 643.96 188.808 644.632 191.235 645.975C193.661 647.275 195.568 649.138 196.955 651.565C198.341 653.948 199.1 656.787 199.23 660.08H192.665C192.101 657.09 190.931 654.772 189.155 653.125C187.421 651.478 185.211 650.655 182.525 650.655C179.101 650.655 176.458 651.89 174.595 654.36C172.731 656.83 171.8 660.275 171.8 664.695C171.8 668.985 172.71 672.343 174.53 674.77C176.35 677.153 178.885 678.345 182.135 678.345C184.561 678.345 186.598 677.63 188.245 676.2C189.935 674.727 191.105 672.69 191.755 670.09H198.32C198.103 673.123 197.28 675.767 195.85 678.02C194.42 680.23 192.513 681.963 190.13 683.22C187.79 684.433 185.125 685.04 182.135 685.04ZM210.162 645H225.372V647.86H227.322C228.102 646.603 229.164 645.65 230.507 645C231.851 644.307 233.389 643.96 235.122 643.96C238.242 643.96 240.712 645.065 242.532 647.275C244.352 649.442 245.262 652.432 245.262 656.245V661.9H237.852V657.285C237.852 652.908 236.076 650.72 232.522 650.72C230.269 650.72 228.579 651.738 227.452 653.775C226.369 655.768 225.827 658.758 225.827 662.745V677.305H237.917V684H211.332V677.305H218.677V651.695H210.162V645ZM261.135 660.535H284.6L282.195 663.915C282.195 659.538 281.415 656.202 279.855 653.905C278.295 651.608 276.02 650.46 273.03 650.46C269.78 650.46 267.245 651.673 265.425 654.1C263.605 656.483 262.695 659.842 262.695 664.175C262.695 668.812 263.605 672.365 265.425 674.835C267.245 677.305 269.845 678.54 273.225 678.54C275.435 678.54 277.363 677.998 279.01 676.915C280.657 675.788 282.043 674.163 283.17 672.04H289.865C289.215 674.727 288.11 677.045 286.55 678.995C285.033 680.945 283.127 682.44 280.83 683.48C278.577 684.52 276.042 685.04 273.225 685.04C269.585 685.04 266.443 684.217 263.8 682.57C261.2 680.923 259.207 678.54 257.82 675.42C256.433 672.3 255.74 668.552 255.74 664.175C255.74 660.015 256.433 656.44 257.82 653.45C259.25 650.417 261.265 648.077 263.865 646.43C266.465 644.783 269.52 643.96 273.03 643.96C276.367 643.96 279.205 644.74 281.545 646.3C283.885 647.86 285.683 650.135 286.94 653.125C288.197 656.072 288.825 659.647 288.825 663.85C288.825 664.327 288.803 664.825 288.76 665.345C288.76 665.865 288.738 666.363 288.695 666.84H261.135V660.535ZM306.648 660.535H330.113L327.708 663.915C327.708 659.538 326.928 656.202 325.368 653.905C323.808 651.608 321.533 650.46 318.543 650.46C315.293 650.46 312.758 651.673 310.938 654.1C309.118 656.483 308.208 659.842 308.208 664.175C308.208 668.812 309.118 672.365 310.938 674.835C312.758 677.305 315.358 678.54 318.738 678.54C320.948 678.54 322.876 677.998 324.523 676.915C326.169 675.788 327.556 674.163 328.683 672.04H335.378C334.728 674.727 333.623 677.045 332.063 678.995C330.546 680.945 328.639 682.44 326.343 683.48C324.089 684.52 321.554 685.04 318.738 685.04C315.098 685.04 311.956 684.217 309.313 682.57C306.713 680.923 304.719 678.54 303.333 675.42C301.946 672.3 301.253 668.552 301.253 664.175C301.253 660.015 301.946 656.44 303.333 653.45C304.763 650.417 306.778 648.077 309.378 646.43C311.978 644.783 315.033 643.96 318.543 643.96C321.879 643.96 324.718 644.74 327.058 646.3C329.398 647.86 331.196 650.135 332.453 653.125C333.709 656.072 334.338 659.647 334.338 663.85C334.338 664.327 334.316 664.825 334.273 665.345C334.273 665.865 334.251 666.363 334.208 666.84H306.648V660.535ZM347.87 684V645H355.02V647.925H356.97C357.967 646.668 359.245 645.693 360.805 645C362.365 644.307 364.077 643.96 365.94 643.96C368.67 643.96 371.032 644.567 373.025 645.78C375.019 646.993 376.579 648.705 377.705 650.915C378.832 653.125 379.395 655.725 379.395 658.715V684H372.245V660.665C372.245 657.415 371.509 654.967 370.035 653.32C368.605 651.63 366.482 650.785 363.665 650.785C360.849 650.785 358.704 651.63 357.23 653.32C355.757 654.967 355.02 657.415 355.02 660.665V684H347.87Z" fill="white"/>
<path fill-rule="evenodd" clip-rule="evenodd" d="M685.606 414.429C689.464 410.45 694.696 408.215 700.152 408.215C705.608 408.215 710.84 410.45 714.698 414.429C718.556 418.407 720.723 423.803 720.723 429.429V432.965C720.723 443.28 724.697 453.173 731.77 460.466C738.842 467.76 748.436 471.858 758.438 471.858C768.439 471.858 778.033 467.76 785.105 460.466C792.179 453.173 796.152 443.28 796.152 432.965V411.751C796.152 405.893 791.547 401.144 785.866 401.144C780.186 401.144 775.58 405.893 775.58 411.751V432.965C775.58 437.654 773.774 442.15 770.56 445.466C767.345 448.781 762.984 450.644 758.438 450.644C753.891 450.644 749.53 448.781 746.316 445.466C743.101 442.15 741.295 437.654 741.295 432.965V429.429C741.295 418.177 736.96 407.385 729.244 399.428C721.528 391.471 711.064 387.001 700.152 387.001C689.24 387.001 678.775 391.471 671.059 399.428C665.448 405.215 661.625 412.501 659.957 420.374C663.006 419.92 666.123 419.685 669.294 419.685C673.412 419.685 677.439 420.081 681.343 420.839C682.359 418.472 683.796 416.295 685.606 414.429ZM716.875 486.431C716.875 459.332 695.573 437.363 669.295 437.363C643.017 437.363 621.714 459.332 621.714 486.431V535.497C621.714 562.596 643.017 584.564 669.295 584.564C695.573 584.564 716.875 562.596 716.875 535.497V486.431ZM677.866 471.422C677.866 466.54 674.029 462.583 669.295 462.583C664.561 462.583 660.724 466.54 660.724 471.422V485.565C660.724 490.447 664.561 494.404 669.295 494.404C674.029 494.404 677.866 490.447 677.866 485.565V471.422Z" fill="white"/>
<path d="M564.263 661V654.045H577.263V615.955H564.263V609H597.673V615.955H584.673V654.045H597.673V661H564.263ZM611.076 661V622H618.226V624.925H620.176C621.173 623.668 622.451 622.693 624.011 622C625.571 621.307 627.283 620.96 629.146 620.96C631.876 620.96 634.238 621.567 636.231 622.78C638.224 623.993 639.784 625.705 640.911 627.915C642.038 630.125 642.601 632.725 642.601 635.715V661H635.451V637.665C635.451 634.415 634.714 631.967 633.241 630.32C631.811 628.63 629.688 627.785 626.871 627.785C624.054 627.785 621.909 628.63 620.436 630.32C618.963 631.967 618.226 634.415 618.226 637.665V661H611.076ZM656.004 674V622H663.154V625.575H665.104C665.97 624.145 667.27 623.018 669.004 622.195C670.737 621.372 672.644 620.96 674.724 620.96C677.974 620.96 680.79 621.805 683.174 623.495C685.557 625.142 687.399 627.503 688.699 630.58C689.999 633.657 690.649 637.297 690.649 641.5C690.649 645.703 689.999 649.343 688.699 652.42C687.399 655.497 685.557 657.88 683.174 659.57C680.79 661.217 677.974 662.04 674.724 662.04C672.644 662.04 670.737 661.628 669.004 660.805C667.27 659.938 665.97 658.812 665.104 657.425H663.154V674H656.004ZM673.229 655.345C676.479 655.345 678.992 654.132 680.769 651.705C682.589 649.278 683.499 645.877 683.499 641.5C683.499 637.123 682.589 633.722 680.769 631.295C678.992 628.868 676.479 627.655 673.229 627.655C669.935 627.655 667.379 628.868 665.559 631.295C663.782 633.722 662.894 637.123 662.894 641.5C662.894 645.877 663.782 649.278 665.559 651.705C667.379 654.132 669.935 655.345 673.229 655.345ZM732.911 622V661H725.761V658.075H723.811C722.815 659.332 721.536 660.307 719.976 661C718.46 661.693 716.748 662.04 714.841 662.04C712.155 662.04 709.793 661.433 707.756 660.22C705.763 659.007 704.203 657.295 703.076 655.085C701.95 652.875 701.386 650.275 701.386 647.285V622H708.536V645.335C708.536 648.585 709.251 651.055 710.681 652.745C712.155 654.392 714.3 655.215 717.116 655.215C719.933 655.215 722.078 654.392 723.551 652.745C725.025 651.055 725.761 648.585 725.761 645.335V622H732.911ZM761.264 611.86V622H778.814V628.695H761.264V648.195C761.264 650.492 761.741 652.268 762.694 653.525C763.647 654.738 765.034 655.345 766.854 655.345C768.761 655.345 770.234 654.695 771.274 653.395C772.357 652.052 773.159 650.037 773.679 647.35H779.984C779.767 652.117 778.511 655.757 776.214 658.27C773.917 660.783 770.711 662.04 766.594 662.04C762.607 662.04 759.531 660.848 757.364 658.465C755.197 656.082 754.114 652.745 754.114 648.455V628.695H745.534V622H754.114V611.86H761.264ZM525.316 725.74C526.052 728.123 527.309 729.943 529.086 731.2C530.862 732.457 533.137 733.085 535.911 733.085C538.944 733.085 541.327 732.327 543.061 730.81C544.794 729.293 545.661 727.192 545.661 724.505C545.661 722.555 545.011 720.952 543.711 719.695C542.454 718.395 540.634 717.572 538.251 717.225L532.531 716.38C528.024 715.6 524.622 713.975 522.326 711.505C520.029 709.035 518.881 705.72 518.881 701.56C518.881 698.397 519.596 695.667 521.026 693.37C522.499 691.03 524.536 689.21 527.136 687.91C529.779 686.61 532.834 685.96 536.301 685.96C539.767 685.96 542.801 686.588 545.401 687.845C548.001 689.102 550.037 690.9 551.511 693.24C553.027 695.537 553.894 698.31 554.111 701.56H547.091C546.397 698.787 545.141 696.663 543.321 695.19C541.501 693.673 539.161 692.915 536.301 692.915C533.137 692.915 530.646 693.695 528.826 695.255C527.049 696.772 526.161 698.873 526.161 701.56C526.161 703.553 526.789 705.178 528.046 706.435C529.346 707.692 531.166 708.515 533.506 708.905L539.226 709.75C543.776 710.487 547.199 712.112 549.496 714.625C551.792 717.095 552.941 720.388 552.941 724.505C552.941 727.668 552.226 730.42 550.796 732.76C549.409 735.057 547.437 736.855 544.881 738.155C542.324 739.412 539.334 740.04 535.911 740.04C532.444 740.04 529.411 739.477 526.811 738.35C524.254 737.18 522.217 735.533 520.701 733.41C519.227 731.243 518.404 728.687 518.231 725.74H525.316ZM569.853 715.535H593.318L590.913 718.915C590.913 714.538 590.133 711.202 588.573 708.905C587.013 706.608 584.738 705.46 581.748 705.46C578.498 705.46 575.963 706.673 574.143 709.1C572.323 711.483 571.413 714.842 571.413 719.175C571.413 723.812 572.323 727.365 574.143 729.835C575.963 732.305 578.563 733.54 581.943 733.54C584.153 733.54 586.082 732.998 587.728 731.915C589.375 730.788 590.762 729.163 591.888 727.04H598.583C597.933 729.727 596.828 732.045 595.268 733.995C593.752 735.945 591.845 737.44 589.548 738.48C587.295 739.52 584.76 740.04 581.943 740.04C578.303 740.04 575.162 739.217 572.518 737.57C569.918 735.923 567.925 733.54 566.538 730.42C565.152 727.3 564.458 723.552 564.458 719.175C564.458 715.015 565.152 711.44 566.538 708.45C567.968 705.417 569.983 703.077 572.583 701.43C575.183 699.783 578.238 698.96 581.748 698.96C585.085 698.96 587.923 699.74 590.263 701.3C592.603 702.86 594.402 705.135 595.658 708.125C596.915 711.072 597.543 714.647 597.543 718.85C597.543 719.327 597.522 719.825 597.478 720.345C597.478 720.865 597.457 721.363 597.413 721.84H569.853V715.535ZM609.906 700H625.116V702.86H627.066C627.846 701.603 628.908 700.65 630.251 700C631.594 699.307 633.133 698.96 634.866 698.96C637.986 698.96 640.456 700.065 642.276 702.275C644.096 704.442 645.006 707.432 645.006 711.245V716.9H637.596V712.285C637.596 707.908 635.819 705.72 632.266 705.72C630.013 705.72 628.323 706.738 627.196 708.775C626.113 710.768 625.571 713.758 625.571 717.745V732.305H637.661V739H611.076V732.305H618.421V706.695H609.906V700ZM653.599 700H661.204L671.929 732.565H672.579L683.239 700H690.389L677.454 739H666.534L653.599 700ZM704.181 700H723.161V732.305H734.926V739H704.181V732.305H716.011V706.695H704.181V700ZM719.066 694.215C717.376 694.215 716.055 693.76 715.101 692.85C714.148 691.897 713.671 690.597 713.671 688.95C713.671 687.303 714.148 686.025 715.101 685.115C716.055 684.162 717.376 683.685 719.066 683.685C720.756 683.685 722.078 684.162 723.031 685.115C723.985 686.025 724.461 687.303 724.461 688.95C724.461 690.597 723.985 691.897 723.031 692.85C722.078 693.76 720.756 694.215 719.066 694.215ZM763.929 740.04C760.376 740.04 757.299 739.217 754.699 737.57C752.099 735.923 750.084 733.583 748.654 730.55C747.224 727.473 746.509 723.855 746.509 719.695C746.509 715.448 747.246 711.787 748.719 708.71C750.192 705.59 752.272 703.185 754.959 701.495C757.689 699.805 760.896 698.96 764.579 698.96C767.786 698.96 770.602 699.632 773.029 700.975C775.456 702.275 777.362 704.138 778.749 706.565C780.136 708.948 780.894 711.787 781.024 715.08H774.459C773.896 712.09 772.726 709.772 770.949 708.125C769.216 706.478 767.006 705.655 764.319 705.655C760.896 705.655 758.252 706.89 756.389 709.36C754.526 711.83 753.594 715.275 753.594 719.695C753.594 723.985 754.504 727.343 756.324 729.77C758.144 732.153 760.679 733.345 763.929 733.345C766.356 733.345 768.392 732.63 770.039 731.2C771.729 729.727 772.899 727.69 773.549 725.09H780.114C779.897 728.123 779.074 730.767 777.644 733.02C776.214 735.23 774.307 736.963 771.924 738.22C769.584 739.433 766.919 740.04 763.929 740.04ZM797.417 715.535H820.882L818.477 718.915C818.477 714.538 817.697 711.202 816.137 708.905C814.577 706.608 812.302 705.46 809.312 705.46C806.062 705.46 803.527 706.673 801.707 709.1C799.887 711.483 798.977 714.842 798.977 719.175C798.977 723.812 799.887 727.365 801.707 729.835C803.527 732.305 806.127 733.54 809.507 733.54C811.717 733.54 813.645 732.998 815.292 731.915C816.938 730.788 818.325 729.163 819.452 727.04H826.147C825.497 729.727 824.392 732.045 822.832 733.995C821.315 735.945 819.408 737.44 817.112 738.48C814.858 739.52 812.323 740.04 809.507 740.04C805.867 740.04 802.725 739.217 800.082 737.57C797.482 735.923 795.488 733.54 794.102 730.42C792.715 727.3 792.022 723.552 792.022 719.175C792.022 715.015 792.715 711.44 794.102 708.45C795.532 705.417 797.547 703.077 800.147 701.43C802.747 699.783 805.802 698.96 809.312 698.96C812.648 698.96 815.487 699.74 817.827 701.3C820.167 702.86 821.965 705.135 823.222 708.125C824.478 711.072 825.107 714.647 825.107 718.85C825.107 719.327 825.085 719.825 825.042 720.345C825.042 720.865 825.02 721.363 824.977 721.84H797.417V715.535Z" fill="white"/>
<circle cx="1147.5" cy="516.5" r="97" stroke="white" stroke-width="25"/>
<path d="M971.494 708V701.045H984.494V662.955H971.494V656H1004.9V662.955H991.904V701.045H1004.9V708H971.494ZM1018.31 708V669H1025.46V671.925H1027.41C1028.4 670.668 1029.68 669.693 1031.24 669C1032.8 668.307 1034.51 667.96 1036.38 667.96C1039.11 667.96 1041.47 668.567 1043.46 669.78C1045.46 670.993 1047.02 672.705 1048.14 674.915C1049.27 677.125 1049.83 679.725 1049.83 682.715V708H1042.68V684.665C1042.68 681.415 1041.95 678.967 1040.47 677.32C1039.04 675.63 1036.92 674.785 1034.1 674.785C1031.29 674.785 1029.14 675.63 1027.67 677.32C1026.19 678.967 1025.46 681.415 1025.46 684.665V708H1018.31ZM1070.19 696.04C1070.8 698.077 1071.9 699.637 1073.5 700.72C1075.11 701.803 1077.17 702.345 1079.68 702.345C1082.28 702.345 1084.27 701.89 1085.66 700.98C1087.05 700.027 1087.74 698.683 1087.74 696.95C1087.74 695.78 1087.18 694.805 1086.05 694.025C1084.92 693.245 1083.25 692.703 1081.04 692.4L1076.3 691.685C1072.05 691.035 1068.91 689.778 1066.87 687.915C1064.84 686.052 1063.82 683.452 1063.82 680.115C1063.82 676.345 1065.21 673.377 1067.98 671.21C1070.8 669.043 1074.65 667.96 1079.55 667.96C1084.53 667.96 1088.48 669.173 1091.38 671.6C1094.28 674.027 1095.82 677.407 1095.99 681.74H1089.49C1088.89 679.443 1087.74 677.688 1086.05 676.475C1084.36 675.262 1082.15 674.655 1079.42 674.655C1076.69 674.655 1074.59 675.132 1073.11 676.085C1071.64 676.995 1070.9 678.317 1070.9 680.05C1070.9 681.22 1071.47 682.195 1072.59 682.975C1073.72 683.755 1075.39 684.297 1077.6 684.6L1082.34 685.315C1086.63 685.965 1089.78 687.222 1091.77 689.085C1093.81 690.948 1094.82 693.548 1094.82 696.885C1094.82 699.398 1094.2 701.565 1092.94 703.385C1091.73 705.205 1089.99 706.613 1087.74 707.61C1085.49 708.563 1082.78 709.04 1079.61 709.04C1074.76 709.04 1070.93 707.892 1068.11 705.595C1065.34 703.298 1063.82 700.113 1063.56 696.04H1070.19ZM1122.98 658.86V669H1140.53V675.695H1122.98V695.195C1122.98 697.492 1123.46 699.268 1124.41 700.525C1125.37 701.738 1126.75 702.345 1128.57 702.345C1130.48 702.345 1131.95 701.695 1132.99 700.395C1134.08 699.052 1134.88 697.037 1135.4 694.35H1141.7C1141.49 699.117 1140.23 702.757 1137.93 705.27C1135.64 707.783 1132.43 709.04 1128.31 709.04C1124.33 709.04 1121.25 707.848 1119.08 705.465C1116.92 703.082 1115.83 699.745 1115.83 695.455V675.695H1107.25V669H1115.83V658.86H1122.98ZM1179.09 683.625V689.93L1167.39 691.75C1165.57 692.053 1164.21 692.682 1163.3 693.635C1162.43 694.588 1162 695.845 1162 697.405C1162 698.878 1162.54 700.07 1163.62 700.98C1164.75 701.89 1166.18 702.345 1167.91 702.345C1169.82 702.345 1171.55 701.89 1173.11 700.98C1174.71 700.07 1175.99 698.857 1176.95 697.34C1177.9 695.78 1178.38 694.068 1178.38 692.205V682.65C1178.38 680.137 1177.62 678.165 1176.1 676.735C1174.58 675.305 1172.5 674.59 1169.86 674.59C1168 674.59 1166.33 674.893 1164.86 675.5C1163.38 676.107 1162.17 676.995 1161.22 678.165C1160.31 679.335 1159.68 680.765 1159.33 682.455H1152.51C1152.72 679.465 1153.57 676.887 1155.04 674.72C1156.56 672.553 1158.59 670.885 1161.15 669.715C1163.71 668.545 1166.68 667.96 1170.06 667.96C1174.91 667.96 1178.66 669.195 1181.3 671.665C1183.99 674.135 1185.33 677.645 1185.33 682.195V708H1178.38V704.425H1176.43C1175.39 705.898 1174.02 707.025 1172.33 707.805C1170.68 708.585 1168.65 708.975 1166.22 708.975C1163.84 708.975 1161.76 708.52 1159.98 707.61C1158.25 706.657 1156.88 705.335 1155.89 703.645C1154.93 701.955 1154.46 699.983 1154.46 697.73C1154.46 694.48 1155.5 691.815 1157.58 689.735C1159.66 687.612 1162.62 686.247 1166.48 685.64L1179.09 683.625ZM1200.36 708V669H1207.51V671.925H1209.46C1210.45 670.668 1211.73 669.693 1213.29 669C1214.85 668.307 1216.56 667.96 1218.43 667.96C1221.16 667.96 1223.52 668.567 1225.51 669.78C1227.51 670.993 1229.07 672.705 1230.19 674.915C1231.32 677.125 1231.88 679.725 1231.88 682.715V708H1224.73V684.665C1224.73 681.415 1224 678.967 1222.52 677.32C1221.09 675.63 1218.97 674.785 1216.15 674.785C1213.34 674.785 1211.19 675.63 1209.72 677.32C1208.24 678.967 1207.51 681.415 1207.51 684.665V708H1200.36ZM1262.19 709.04C1258.63 709.04 1255.56 708.217 1252.96 706.57C1250.36 704.923 1248.34 702.583 1246.91 699.55C1245.48 696.473 1244.77 692.855 1244.77 688.695C1244.77 684.448 1245.5 680.787 1246.98 677.71C1248.45 674.59 1250.53 672.185 1253.22 670.495C1255.95 668.805 1259.15 667.96 1262.84 667.96C1266.04 667.96 1268.86 668.632 1271.29 669.975C1273.71 671.275 1275.62 673.138 1277.01 675.565C1278.39 677.948 1279.15 680.787 1279.28 684.08H1272.72C1272.15 681.09 1270.98 678.772 1269.21 677.125C1267.47 675.478 1265.26 674.655 1262.58 674.655C1259.15 674.655 1256.51 675.89 1254.65 678.36C1252.78 680.83 1251.85 684.275 1251.85 688.695C1251.85 692.985 1252.76 696.343 1254.58 698.77C1256.4 701.153 1258.94 702.345 1262.19 702.345C1264.61 702.345 1266.65 701.63 1268.3 700.2C1269.99 698.727 1271.16 696.69 1271.81 694.09H1278.37C1278.15 697.123 1277.33 699.767 1275.9 702.02C1274.47 704.23 1272.56 705.963 1270.18 707.22C1267.84 708.433 1265.18 709.04 1262.19 709.04ZM1295.67 684.535H1319.14L1316.73 687.915C1316.73 683.538 1315.95 680.202 1314.39 677.905C1312.83 675.608 1310.56 674.46 1307.57 674.46C1304.32 674.46 1301.78 675.673 1299.96 678.1C1298.14 680.483 1297.23 683.842 1297.23 688.175C1297.23 692.812 1298.14 696.365 1299.96 698.835C1301.78 701.305 1304.38 702.54 1307.76 702.54C1309.97 702.54 1311.9 701.998 1313.55 700.915C1315.19 699.788 1316.58 698.163 1317.71 696.04H1324.4C1323.75 698.727 1322.65 701.045 1321.09 702.995C1319.57 704.945 1317.66 706.44 1315.37 707.48C1313.11 708.52 1310.58 709.04 1307.76 709.04C1304.12 709.04 1300.98 708.217 1298.34 706.57C1295.74 704.923 1293.74 702.54 1292.36 699.42C1290.97 696.3 1290.28 692.552 1290.28 688.175C1290.28 684.015 1290.97 680.44 1292.36 677.45C1293.79 674.417 1295.8 672.077 1298.4 670.43C1301 668.783 1304.06 667.96 1307.57 667.96C1310.9 667.96 1313.74 668.74 1316.08 670.3C1318.42 671.86 1320.22 674.135 1321.48 677.125C1322.73 680.072 1323.36 683.647 1323.36 687.85C1323.36 688.327 1323.34 688.825 1323.3 689.345C1323.3 689.865 1323.28 690.363 1323.23 690.84H1295.67V684.535Z" fill="white"/>
<path fill-rule="evenodd" clip-rule="evenodd" d="M1682.98 535C1678.3 535 1674.3 538.275 1672.85 542.727C1661.82 576.556 1630.01 601 1592.5 601C1545.83 601 1508 563.168 1508 516.5C1508 469.832 1545.83 432 1592.5 432C1621.23 432 1646.62 446.341 1661.88 468.256C1663.89 471.135 1667.1 473 1670.61 473H1677.79C1684.98 473 1689.76 465.631 1686.01 459.49C1666.77 428.011 1632.09 407 1592.5 407C1532.02 407 1483 456.025 1483 516.5C1483 576.975 1532.02 626 1592.5 626C1642.55 626 1684.76 592.415 1697.83 546.551C1699.52 540.594 1694.79 535 1688.6 535H1682.98Z" fill="white"/>
<path d="M1611 477H1684.32L1728 430" stroke="white" stroke-width="25" stroke-linecap="round"/>
<path d="M1390.91 708V656H1408.53C1411.86 656 1414.77 656.607 1417.24 657.82C1419.71 659.033 1421.61 660.767 1422.96 663.02C1424.34 665.273 1425.04 667.938 1425.04 671.015C1425.04 673.918 1424.34 676.453 1422.96 678.62C1421.57 680.787 1419.64 682.498 1417.17 683.755C1414.7 684.968 1411.82 685.575 1408.53 685.575H1398.32V708H1390.91ZM1417.89 708L1403.85 684.275H1411.84L1426.34 708H1417.89ZM1398.32 679.14H1408.66C1411.39 679.14 1413.55 678.403 1415.16 676.93C1416.8 675.457 1417.63 673.507 1417.63 671.08C1417.63 668.61 1416.8 666.638 1415.16 665.165C1413.55 663.692 1411.39 662.955 1408.66 662.955H1398.32V679.14ZM1467.1 669V708H1459.95V705.075H1458C1457.01 706.332 1455.73 707.307 1454.17 708C1452.65 708.693 1450.94 709.04 1449.03 709.04C1446.35 709.04 1443.99 708.433 1441.95 707.22C1439.96 706.007 1438.4 704.295 1437.27 702.085C1436.14 699.875 1435.58 697.275 1435.58 694.285V669H1442.73V692.335C1442.73 695.585 1443.44 698.055 1444.87 699.745C1446.35 701.392 1448.49 702.215 1451.31 702.215C1454.13 702.215 1456.27 701.392 1457.74 699.745C1459.22 698.055 1459.95 695.585 1459.95 692.335V669H1467.1ZM1481.81 708V669H1488.96V671.925H1490.91C1491.9 670.668 1493.18 669.693 1494.74 669C1496.3 668.307 1498.01 667.96 1499.88 667.96C1502.61 667.96 1504.97 668.567 1506.96 669.78C1508.96 670.993 1510.52 672.705 1511.64 674.915C1512.77 677.125 1513.33 679.725 1513.33 682.715V708H1506.18V684.665C1506.18 681.415 1505.45 678.967 1503.97 677.32C1502.54 675.63 1500.42 674.785 1497.6 674.785C1494.79 674.785 1492.64 675.63 1491.17 677.32C1489.69 678.967 1488.96 681.415 1488.96 684.665V708H1481.81ZM1532.58 694.74C1533.32 697.123 1534.58 698.943 1536.35 700.2C1538.13 701.457 1540.41 702.085 1543.18 702.085C1546.21 702.085 1548.6 701.327 1550.33 699.81C1552.06 698.293 1552.93 696.192 1552.93 693.505C1552.93 691.555 1552.28 689.952 1550.98 688.695C1549.72 687.395 1547.9 686.572 1545.52 686.225L1539.8 685.38C1535.29 684.6 1531.89 682.975 1529.59 680.505C1527.3 678.035 1526.15 674.72 1526.15 670.56C1526.15 667.397 1526.86 664.667 1528.29 662.37C1529.77 660.03 1531.8 658.21 1534.4 656.91C1537.05 655.61 1540.1 654.96 1543.57 654.96C1547.04 654.96 1550.07 655.588 1552.67 656.845C1555.27 658.102 1557.31 659.9 1558.78 662.24C1560.3 664.537 1561.16 667.31 1561.38 670.56H1554.36C1553.67 667.787 1552.41 665.663 1550.59 664.19C1548.77 662.673 1546.43 661.915 1543.57 661.915C1540.41 661.915 1537.91 662.695 1536.09 664.255C1534.32 665.772 1533.43 667.873 1533.43 670.56C1533.43 672.553 1534.06 674.178 1535.31 675.435C1536.61 676.692 1538.43 677.515 1540.77 677.905L1546.49 678.75C1551.04 679.487 1554.47 681.112 1556.76 683.625C1559.06 686.095 1560.21 689.388 1560.21 693.505C1560.21 696.668 1559.49 699.42 1558.06 701.76C1556.68 704.057 1554.71 705.855 1552.15 707.155C1549.59 708.412 1546.6 709.04 1543.18 709.04C1539.71 709.04 1536.68 708.477 1534.08 707.35C1531.52 706.18 1529.49 704.533 1527.97 702.41C1526.5 700.243 1525.67 697.687 1525.5 694.74H1532.58ZM1577.12 684.535H1600.59L1598.18 687.915C1598.18 683.538 1597.4 680.202 1595.84 677.905C1594.28 675.608 1592.01 674.46 1589.02 674.46C1585.77 674.46 1583.23 675.673 1581.41 678.1C1579.59 680.483 1578.68 683.842 1578.68 688.175C1578.68 692.812 1579.59 696.365 1581.41 698.835C1583.23 701.305 1585.83 702.54 1589.21 702.54C1591.42 702.54 1593.35 701.998 1595 700.915C1596.64 699.788 1598.03 698.163 1599.16 696.04H1605.85C1605.2 698.727 1604.1 701.045 1602.54 702.995C1601.02 704.945 1599.11 706.44 1596.82 707.48C1594.56 708.52 1592.03 709.04 1589.21 709.04C1585.57 709.04 1582.43 708.217 1579.79 706.57C1577.19 704.923 1575.19 702.54 1573.81 699.42C1572.42 696.3 1571.73 692.552 1571.73 688.175C1571.73 684.015 1572.42 680.44 1573.81 677.45C1575.24 674.417 1577.25 672.077 1579.85 670.43C1582.45 668.783 1585.51 667.96 1589.02 667.96C1592.35 667.96 1595.19 668.74 1597.53 670.3C1599.87 671.86 1601.67 674.135 1602.93 677.125C1604.18 680.072 1604.81 683.647 1604.81 687.85C1604.81 688.327 1604.79 688.825 1604.75 689.345C1604.75 689.865 1604.73 690.363 1604.68 690.84H1577.12V684.535ZM1617.18 669H1632.39V671.86H1634.34C1635.12 670.603 1636.18 669.65 1637.52 669C1638.86 668.307 1640.4 667.96 1642.14 667.96C1645.26 667.96 1647.73 669.065 1649.55 671.275C1651.37 673.442 1652.28 676.432 1652.28 680.245V685.9H1644.87V681.285C1644.87 676.908 1643.09 674.72 1639.54 674.72C1637.28 674.72 1635.59 675.738 1634.47 677.775C1633.38 679.768 1632.84 682.758 1632.84 686.745V701.305H1644.93V708H1618.35V701.305H1625.69V675.695H1617.18V669ZM1660.87 669H1668.47L1679.2 701.565H1679.85L1690.51 669H1697.66L1684.72 708H1673.8L1660.87 669ZM1711.45 669H1730.43V701.305H1742.2V708H1711.45V701.305H1723.28V675.695H1711.45V669ZM1726.34 663.215C1724.65 663.215 1723.32 662.76 1722.37 661.85C1721.42 660.897 1720.94 659.597 1720.94 657.95C1720.94 656.303 1721.42 655.025 1722.37 654.115C1723.32 653.162 1724.65 652.685 1726.34 652.685C1728.03 652.685 1729.35 653.162 1730.3 654.115C1731.25 655.025 1731.73 656.303 1731.73 657.95C1731.73 659.597 1731.25 660.897 1730.3 661.85C1729.35 662.76 1728.03 663.215 1726.34 663.215ZM1771.2 709.04C1767.64 709.04 1764.57 708.217 1761.97 706.57C1759.37 704.923 1757.35 702.583 1755.92 699.55C1754.49 696.473 1753.78 692.855 1753.78 688.695C1753.78 684.448 1754.51 680.787 1755.99 677.71C1757.46 674.59 1759.54 672.185 1762.23 670.495C1764.96 668.805 1768.16 667.96 1771.85 667.96C1775.05 667.96 1777.87 668.632 1780.3 669.975C1782.72 671.275 1784.63 673.138 1786.02 675.565C1787.4 677.948 1788.16 680.787 1788.29 684.08H1781.73C1781.16 681.09 1779.99 678.772 1778.22 677.125C1776.48 675.478 1774.27 674.655 1771.59 674.655C1768.16 674.655 1765.52 675.89 1763.66 678.36C1761.79 680.83 1760.86 684.275 1760.86 688.695C1760.86 692.985 1761.77 696.343 1763.59 698.77C1765.41 701.153 1767.95 702.345 1771.2 702.345C1773.62 702.345 1775.66 701.63 1777.31 700.2C1779 698.727 1780.17 696.69 1780.82 694.09H1787.38C1787.17 697.123 1786.34 699.767 1784.91 702.02C1783.48 704.23 1781.58 705.963 1779.19 707.22C1776.85 708.433 1774.19 709.04 1771.2 709.04ZM1804.69 684.535H1828.15L1825.75 687.915C1825.75 683.538 1824.97 680.202 1823.41 677.905C1821.85 675.608 1819.57 674.46 1816.58 674.46C1813.33 674.46 1810.8 675.673 1808.98 678.1C1807.16 680.483 1806.25 683.842 1806.25 688.175C1806.25 692.812 1807.16 696.365 1808.98 698.835C1810.8 701.305 1813.4 702.54 1816.78 702.54C1818.99 702.54 1820.91 701.998 1822.56 700.915C1824.21 699.788 1825.59 698.163 1826.72 696.04H1833.42C1832.77 698.727 1831.66 701.045 1830.1 702.995C1828.58 704.945 1826.68 706.44 1824.38 707.48C1822.13 708.52 1819.59 709.04 1816.78 709.04C1813.14 709.04 1809.99 708.217 1807.35 706.57C1804.75 704.923 1802.76 702.54 1801.37 699.42C1799.98 696.3 1799.29 692.552 1799.29 688.175C1799.29 684.015 1799.98 680.44 1801.37 677.45C1802.8 674.417 1804.82 672.077 1807.42 670.43C1810.02 668.783 1813.07 667.96 1816.58 667.96C1819.92 667.96 1822.76 668.74 1825.1 670.3C1827.44 671.86 1829.23 674.135 1830.49 677.125C1831.75 680.072 1832.38 683.647 1832.38 687.85C1832.38 688.327 1832.35 688.825 1832.31 689.345C1832.31 689.865 1832.29 690.363 1832.25 690.84H1804.69V684.535Z" fill="white"/>
<path d="M609.583 949L628.033 877H644.773L663.223 949H652.513L636.583 884.65H635.683L619.663 949H609.583ZM620.833 924.61V914.89H651.973V924.61H620.833ZM678.091 949V895H687.991V899.05H690.691C692.071 897.31 693.841 895.96 696.001 895C698.161 894.04 700.531 893.56 703.111 893.56C706.891 893.56 710.161 894.4 712.921 896.08C715.681 897.76 717.841 900.13 719.401 903.19C720.961 906.25 721.741 909.85 721.741 913.99V949H711.841V916.69C711.841 912.19 710.821 908.8 708.781 906.52C706.801 904.18 703.861 903.01 699.961 903.01C696.061 903.01 693.091 904.18 691.051 906.52C689.011 908.8 687.991 912.19 687.991 916.69V949H678.091ZM758.658 950.44C754.158 950.44 750.258 949.3 746.958 947.02C743.718 944.68 741.168 941.38 739.308 937.12C737.508 932.86 736.608 927.82 736.608 922C736.608 916.18 737.508 911.14 739.308 906.88C741.168 902.62 743.718 899.35 746.958 897.07C750.258 894.73 754.158 893.56 758.658 893.56C761.598 893.56 764.268 894.13 766.668 895.27C769.068 896.41 770.838 897.97 771.978 899.95H774.678V872.68H784.578V949H774.678V944.05H771.978C770.838 945.97 769.068 947.53 766.668 948.73C764.268 949.87 761.598 950.44 758.658 950.44ZM760.728 941.17C765.288 941.17 768.798 939.49 771.258 936.13C773.778 932.77 775.038 928.06 775.038 922C775.038 915.94 773.778 911.23 771.258 907.87C768.798 904.51 765.288 902.83 760.728 902.83C756.228 902.83 752.718 904.51 750.198 907.87C747.738 911.23 746.508 915.94 746.508 922C746.508 928.06 747.738 932.77 750.198 936.13C752.718 939.49 756.228 941.17 760.728 941.17ZM863.814 895H873.714V899.32H880.824L875.514 902.47C875.694 899.71 876.534 897.55 878.034 895.99C879.594 894.37 881.604 893.56 884.064 893.56C886.404 893.56 888.354 894.46 889.914 896.26C891.474 898.06 892.434 900.49 892.794 903.55L887.214 899.77H898.824L893.784 902.65C893.964 899.89 894.894 897.7 896.574 896.08C898.314 894.4 900.504 893.56 903.144 893.56C906.264 893.56 908.754 894.88 910.614 897.52C912.534 900.1 913.494 903.58 913.494 907.96V949H904.044V911.83C904.044 909.37 903.594 907.54 902.694 906.34C901.794 905.08 900.444 904.45 898.644 904.45C896.904 904.45 895.584 905.08 894.684 906.34C893.784 907.54 893.334 909.37 893.334 911.83V949H883.974V911.83C883.974 909.37 883.524 907.54 882.624 906.34C881.724 905.08 880.404 904.45 878.664 904.45C876.864 904.45 875.514 905.08 874.614 906.34C873.714 907.54 873.264 909.37 873.264 911.83V949H863.814V895ZM951.491 950.44C946.511 950.44 942.191 949.3 938.531 947.02C934.871 944.68 932.021 941.38 929.981 937.12C928.001 932.86 927.011 927.82 927.011 922C927.011 916.18 928.001 911.14 929.981 906.88C932.021 902.62 934.871 899.35 938.531 897.07C942.191 894.73 946.511 893.56 951.491 893.56C956.531 893.56 960.851 894.73 964.451 897.07C968.111 899.35 970.931 902.62 972.911 906.88C974.951 911.14 975.971 916.18 975.971 922C975.971 927.82 974.951 932.86 972.911 937.12C970.931 941.38 968.111 944.68 964.451 947.02C960.851 949.3 956.531 950.44 951.491 950.44ZM951.491 941.17C956.111 941.17 959.711 939.49 962.291 936.13C964.871 932.77 966.161 928.06 966.161 922C966.161 915.94 964.871 911.23 962.291 907.87C959.711 904.51 956.111 902.83 951.491 902.83C946.871 902.83 943.271 904.51 940.691 907.87C938.111 911.23 936.821 915.94 936.821 922C936.821 928.06 938.111 932.77 940.691 936.13C943.271 939.49 946.871 941.17 951.491 941.17ZM991.559 895H1012.62V898.96H1015.32C1016.4 897.22 1017.87 895.9 1019.73 895C1021.59 894.04 1023.72 893.56 1026.12 893.56C1030.44 893.56 1033.86 895.09 1036.38 898.15C1038.9 901.15 1040.16 905.29 1040.16 910.57V918.4H1029.9V912.01C1029.9 905.95 1027.44 902.92 1022.52 902.92C1019.4 902.92 1017.06 904.33 1015.5 907.15C1014 909.91 1013.25 914.05 1013.25 919.57V939.73H1029.99V949H993.179V939.73H1003.35V904.27H991.559V895ZM1062.14 916.51H1094.63L1091.3 921.19C1091.3 915.13 1090.22 910.51 1088.06 907.33C1085.9 904.15 1082.75 902.56 1078.61 902.56C1074.11 902.56 1070.6 904.24 1068.08 907.6C1065.56 910.9 1064.3 915.55 1064.3 921.55C1064.3 927.97 1065.56 932.89 1068.08 936.31C1070.6 939.73 1074.2 941.44 1078.88 941.44C1081.94 941.44 1084.61 940.69 1086.89 939.19C1089.17 937.63 1091.09 935.38 1092.65 932.44H1101.92C1101.02 936.16 1099.49 939.37 1097.33 942.07C1095.23 944.77 1092.59 946.84 1089.41 948.28C1086.29 949.72 1082.78 950.44 1078.88 950.44C1073.84 950.44 1069.49 949.3 1065.83 947.02C1062.23 944.74 1059.47 941.44 1057.55 937.12C1055.63 932.8 1054.67 927.61 1054.67 921.55C1054.67 915.79 1055.63 910.84 1057.55 906.7C1059.53 902.5 1062.32 899.26 1065.92 896.98C1069.52 894.7 1073.75 893.56 1078.61 893.56C1083.23 893.56 1087.16 894.64 1090.4 896.8C1093.64 898.96 1096.13 902.11 1097.87 906.25C1099.61 910.33 1100.48 915.28 1100.48 921.1C1100.48 921.76 1100.45 922.45 1100.39 923.17C1100.39 923.89 1100.36 924.58 1100.3 925.24H1062.14V916.51ZM1140.54 949.72C1137.9 949.72 1135.86 948.97 1134.42 947.47C1132.98 945.97 1132.26 943.84 1132.26 941.08C1132.26 938.38 1132.98 936.28 1134.42 934.78C1135.86 933.28 1137.9 932.53 1140.54 932.53C1143.18 932.53 1145.22 933.28 1146.66 934.78C1148.1 936.28 1148.82 938.38 1148.82 941.08C1148.82 943.84 1148.1 945.97 1146.66 947.47C1145.22 948.97 1143.18 949.72 1140.54 949.72ZM1203.56 949.72C1200.92 949.72 1198.88 948.97 1197.44 947.47C1196 945.97 1195.28 943.84 1195.28 941.08C1195.28 938.38 1196 936.28 1197.44 934.78C1198.88 933.28 1200.92 932.53 1203.56 932.53C1206.2 932.53 1208.24 933.28 1209.68 934.78C1211.12 936.28 1211.84 938.38 1211.84 941.08C1211.84 943.84 1211.12 945.97 1209.68 947.47C1208.24 948.97 1206.2 949.72 1203.56 949.72ZM1266.58 949.72C1263.94 949.72 1261.9 948.97 1260.46 947.47C1259.02 945.97 1258.3 943.84 1258.3 941.08C1258.3 938.38 1259.02 936.28 1260.46 934.78C1261.9 933.28 1263.94 932.53 1266.58 932.53C1269.22 932.53 1271.26 933.28 1272.7 934.78C1274.14 936.28 1274.86 938.38 1274.86 941.08C1274.86 943.84 1274.14 945.97 1272.7 947.47C1271.26 948.97 1269.22 949.72 1266.58 949.72Z" fill="white"/>
</svg>
