<svg width="1920" height="1080" viewBox="0 0 1920 1080" fill="none" xmlns="http://www.w3.org/2000/svg">
<rect width="1920" height="1080" fill="#111111"/>
<circle cx="1568" cy="770" r="112.5" stroke="white" stroke-width="25"/>
<circle cx="1520" cy="741" r="16" fill="white"/>
<circle cx="1616" cy="741" r="16" fill="white"/>
<path d="M1500 793C1566.72 867.255 1617.8 823.94 1635 793" stroke="white" stroke-width="10" stroke-linecap="round"/>
<path d="M1398.06 951.74C1398.8 954.123 1400.05 955.943 1401.83 957.2C1403.61 958.457 1405.88 959.085 1408.65 959.085C1411.69 959.085 1414.07 958.327 1415.8 956.81C1417.54 955.293 1418.4 953.192 1418.4 950.505C1418.4 948.555 1417.75 946.952 1416.45 945.695C1415.2 944.395 1413.38 943.572 1410.99 943.225L1405.27 942.38C1400.77 941.6 1397.37 939.975 1395.07 937.505C1392.77 935.035 1391.62 931.72 1391.62 927.56C1391.62 924.397 1392.34 921.667 1393.77 919.37C1395.24 917.03 1397.28 915.21 1399.88 913.91C1402.52 912.61 1405.58 911.96 1409.04 911.96C1412.51 911.96 1415.54 912.588 1418.14 913.845C1420.74 915.102 1422.78 916.9 1424.25 919.24C1425.77 921.537 1426.64 924.31 1426.85 927.56H1419.83C1419.14 924.787 1417.88 922.663 1416.06 921.19C1414.24 919.673 1411.9 918.915 1409.04 918.915C1405.88 918.915 1403.39 919.695 1401.57 921.255C1399.79 922.772 1398.9 924.873 1398.9 927.56C1398.9 929.553 1399.53 931.178 1400.79 932.435C1402.09 933.692 1403.91 934.515 1406.25 934.905L1411.97 935.75C1416.52 936.487 1419.94 938.112 1422.24 940.625C1424.54 943.095 1425.68 946.388 1425.68 950.505C1425.68 953.668 1424.97 956.42 1423.54 958.76C1422.15 961.057 1420.18 962.855 1417.62 964.155C1415.07 965.412 1412.08 966.04 1408.65 966.04C1405.19 966.04 1402.15 965.477 1399.55 964.35C1397 963.18 1394.96 961.533 1393.44 959.41C1391.97 957.243 1391.15 954.687 1390.97 951.74H1398.06ZM1437.72 978V926H1444.87V929.575H1446.82C1447.69 928.145 1448.99 927.018 1450.72 926.195C1452.46 925.372 1454.36 924.96 1456.44 924.96C1459.69 924.96 1462.51 925.805 1464.89 927.495C1467.28 929.142 1469.12 931.503 1470.42 934.58C1471.72 937.657 1472.37 941.297 1472.37 945.5C1472.37 949.703 1471.72 953.343 1470.42 956.42C1469.12 959.497 1467.28 961.88 1464.89 963.57C1462.51 965.217 1459.69 966.04 1456.44 966.04C1454.36 966.04 1452.46 965.628 1450.72 964.805C1448.99 963.938 1447.69 962.812 1446.82 961.425H1444.87V978H1437.72ZM1454.95 959.345C1458.2 959.345 1460.71 958.132 1462.49 955.705C1464.31 953.278 1465.22 949.877 1465.22 945.5C1465.22 941.123 1464.31 937.722 1462.49 935.295C1460.71 932.868 1458.2 931.655 1454.95 931.655C1451.65 931.655 1449.1 932.868 1447.28 935.295C1445.5 937.722 1444.61 941.123 1444.61 945.5C1444.61 949.877 1445.5 953.278 1447.28 955.705C1449.1 958.132 1451.65 959.345 1454.95 959.345ZM1482.65 926H1497.86V928.86H1499.81C1500.59 927.603 1501.65 926.65 1502.99 926C1504.34 925.307 1505.88 924.96 1507.61 924.96C1510.73 924.96 1513.2 926.065 1515.02 928.275C1516.84 930.442 1517.75 933.432 1517.75 937.245V942.9H1510.34V938.285C1510.34 933.908 1508.56 931.72 1505.01 931.72C1502.76 931.72 1501.07 932.738 1499.94 934.775C1498.86 936.768 1498.31 939.758 1498.31 943.745V958.305H1510.4V965H1483.82V958.305H1491.16V932.695H1482.65V926ZM1531.41 926H1550.39V958.305H1562.16V965H1531.41V958.305H1543.24V932.695H1531.41V926ZM1546.3 920.215C1544.61 920.215 1543.29 919.76 1542.33 918.85C1541.38 917.897 1540.9 916.597 1540.9 914.95C1540.9 913.303 1541.38 912.025 1542.33 911.115C1543.29 910.162 1544.61 909.685 1546.3 909.685C1547.99 909.685 1549.31 910.162 1550.26 911.115C1551.22 912.025 1551.69 913.303 1551.69 914.95C1551.69 916.597 1551.22 917.897 1550.26 918.85C1549.31 919.76 1547.99 920.215 1546.3 920.215ZM1588.5 915.86V926H1606.05V932.695H1588.5V952.195C1588.5 954.492 1588.97 956.268 1589.93 957.525C1590.88 958.738 1592.27 959.345 1594.09 959.345C1595.99 959.345 1597.47 958.695 1598.51 957.395C1599.59 956.052 1600.39 954.037 1600.91 951.35H1607.22C1607 956.117 1605.74 959.757 1603.45 962.27C1601.15 964.783 1597.94 966.04 1593.83 966.04C1589.84 966.04 1586.76 964.848 1584.6 962.465C1582.43 960.082 1581.35 956.745 1581.35 952.455V932.695H1572.77V926H1581.35V915.86H1588.5ZM1624.65 941.535H1648.11L1645.71 944.915C1645.71 940.538 1644.93 937.202 1643.37 934.905C1641.81 932.608 1639.53 931.46 1636.54 931.46C1633.29 931.46 1630.76 932.673 1628.94 935.1C1627.12 937.483 1626.21 940.842 1626.21 945.175C1626.21 949.812 1627.12 953.365 1628.94 955.835C1630.76 958.305 1633.36 959.54 1636.74 959.54C1638.95 959.54 1640.88 958.998 1642.52 957.915C1644.17 956.788 1645.56 955.163 1646.68 953.04H1653.38C1652.73 955.727 1651.62 958.045 1650.06 959.995C1648.55 961.945 1646.64 963.44 1644.34 964.48C1642.09 965.52 1639.55 966.04 1636.74 966.04C1633.1 966.04 1629.96 965.217 1627.31 963.57C1624.71 961.923 1622.72 959.54 1621.33 956.42C1619.95 953.3 1619.25 949.552 1619.25 945.175C1619.25 941.015 1619.95 937.44 1621.33 934.45C1622.76 931.417 1624.78 929.077 1627.38 927.43C1629.98 925.783 1633.03 924.96 1636.54 924.96C1639.88 924.96 1642.72 925.74 1645.06 927.3C1647.4 928.86 1649.2 931.135 1650.45 934.125C1651.71 937.072 1652.34 940.647 1652.34 944.85C1652.34 945.327 1652.32 945.825 1652.27 946.345C1652.27 946.865 1652.25 947.363 1652.21 947.84H1624.65V941.535ZM1665.68 954.015L1683.81 940.43C1686.32 938.567 1688.17 936.66 1689.34 934.71C1690.51 932.717 1691.09 930.572 1691.09 928.275C1691.09 925.372 1690.27 923.097 1688.62 921.45C1686.97 919.76 1684.7 918.915 1681.8 918.915C1679.07 918.915 1676.83 919.76 1675.1 921.45C1673.37 923.14 1672.15 925.61 1671.46 928.86H1664.31C1664.48 925.35 1665.35 922.338 1666.91 919.825C1668.51 917.268 1670.59 915.318 1673.15 913.975C1675.75 912.632 1678.63 911.96 1681.8 911.96C1685.18 911.96 1688.1 912.653 1690.57 914.04C1693.08 915.383 1695.03 917.268 1696.42 919.695C1697.81 922.122 1698.5 924.982 1698.5 928.275C1698.5 931.655 1697.63 934.797 1695.9 937.7C1694.17 940.603 1691.55 943.333 1688.04 945.89L1671.98 957.395V958.045H1697.46V965H1665.68V954.015ZM1710.08 965V913H1724.64C1731.66 913 1736.93 915.188 1740.44 919.565C1743.99 923.898 1745.77 930.377 1745.77 939C1745.77 947.623 1743.99 954.123 1740.44 958.5C1736.93 962.833 1731.66 965 1724.64 965H1710.08ZM1717.49 958.045H1724.64C1729.24 958.045 1732.66 956.485 1734.91 953.365C1737.21 950.202 1738.36 945.413 1738.36 939C1738.36 932.543 1737.21 927.755 1734.91 924.635C1732.66 921.515 1729.24 919.955 1724.64 919.955H1717.49V958.045Z" fill="white"/>
<circle cx="307" cy="769" r="112.5" stroke="white" stroke-width="25"/>
<circle cx="259" cy="740" r="16" fill="white"/>
<circle cx="355" cy="740" r="16" fill="white"/>
<path d="M239 792C305.723 866.255 356.801 822.94 374 792" stroke="white" stroke-width="10" stroke-linecap="round"/>
<path d="M137.059 960.74C137.796 963.123 139.053 964.943 140.829 966.2C142.606 967.457 144.881 968.085 147.654 968.085C150.688 968.085 153.071 967.327 154.804 965.81C156.538 964.293 157.404 962.192 157.404 959.505C157.404 957.555 156.754 955.952 155.454 954.695C154.198 953.395 152.378 952.572 149.994 952.225L144.274 951.38C139.768 950.6 136.366 948.975 134.069 946.505C131.773 944.035 130.624 940.72 130.624 936.56C130.624 933.397 131.339 930.667 132.769 928.37C134.243 926.03 136.279 924.21 138.879 922.91C141.523 921.61 144.578 920.96 148.044 920.96C151.511 920.96 154.544 921.588 157.144 922.845C159.744 924.102 161.781 925.9 163.254 928.24C164.771 930.537 165.638 933.31 165.854 936.56H158.834C158.141 933.787 156.884 931.663 155.064 930.19C153.244 928.673 150.904 927.915 148.044 927.915C144.881 927.915 142.389 928.695 140.569 930.255C138.793 931.772 137.904 933.873 137.904 936.56C137.904 938.553 138.533 940.178 139.789 941.435C141.089 942.692 142.909 943.515 145.249 943.905L150.969 944.75C155.519 945.487 158.943 947.112 161.239 949.625C163.536 952.095 164.684 955.388 164.684 959.505C164.684 962.668 163.969 965.42 162.539 967.76C161.153 970.057 159.181 971.855 156.624 973.155C154.068 974.412 151.078 975.04 147.654 975.04C144.188 975.04 141.154 974.477 138.554 973.35C135.998 972.18 133.961 970.533 132.444 968.41C130.971 966.243 130.148 963.687 129.974 960.74H137.059ZM176.722 987V935H183.872V938.575H185.822C186.689 937.145 187.989 936.018 189.722 935.195C191.455 934.372 193.362 933.96 195.442 933.96C198.692 933.96 201.509 934.805 203.892 936.495C206.275 938.142 208.117 940.503 209.417 943.58C210.717 946.657 211.367 950.297 211.367 954.5C211.367 958.703 210.717 962.343 209.417 965.42C208.117 968.497 206.275 970.88 203.892 972.57C201.509 974.217 198.692 975.04 195.442 975.04C193.362 975.04 191.455 974.628 189.722 973.805C187.989 972.938 186.689 971.812 185.822 970.425H183.872V987H176.722ZM193.947 968.345C197.197 968.345 199.71 967.132 201.487 964.705C203.307 962.278 204.217 958.877 204.217 954.5C204.217 950.123 203.307 946.722 201.487 944.295C199.71 941.868 197.197 940.655 193.947 940.655C190.654 940.655 188.097 941.868 186.277 944.295C184.5 946.722 183.612 950.123 183.612 954.5C183.612 958.877 184.5 962.278 186.277 964.705C188.097 967.132 190.654 968.345 193.947 968.345ZM221.65 935H236.86V937.86H238.81C239.59 936.603 240.651 935.65 241.995 935C243.338 934.307 244.876 933.96 246.61 933.96C249.73 933.96 252.2 935.065 254.02 937.275C255.84 939.442 256.75 942.432 256.75 946.245V951.9H249.34V947.285C249.34 942.908 247.563 940.72 244.01 940.72C241.756 940.72 240.066 941.738 238.94 943.775C237.856 945.768 237.315 948.758 237.315 952.745V967.305H249.405V974H222.82V967.305H230.165V941.695H221.65V935ZM270.412 935H289.392V967.305H301.157V974H270.412V967.305H282.242V941.695H270.412V935ZM285.297 929.215C283.607 929.215 282.286 928.76 281.332 927.85C280.379 926.897 279.902 925.597 279.902 923.95C279.902 922.303 280.379 921.025 281.332 920.115C282.286 919.162 283.607 918.685 285.297 918.685C286.987 918.685 288.309 919.162 289.262 920.115C290.216 921.025 290.692 922.303 290.692 923.95C290.692 925.597 290.216 926.897 289.262 927.85C288.309 928.76 286.987 929.215 285.297 929.215ZM327.495 924.86V935H345.045V941.695H327.495V961.195C327.495 963.492 327.972 965.268 328.925 966.525C329.878 967.738 331.265 968.345 333.085 968.345C334.992 968.345 336.465 967.695 337.505 966.395C338.588 965.052 339.39 963.037 339.91 960.35H346.215C345.998 965.117 344.742 968.757 342.445 971.27C340.148 973.783 336.942 975.04 332.825 975.04C328.838 975.04 325.762 973.848 323.595 971.465C321.428 969.082 320.345 965.745 320.345 961.455V941.695H311.765V935H320.345V924.86H327.495ZM363.648 950.535H387.113L384.708 953.915C384.708 949.538 383.928 946.202 382.368 943.905C380.808 941.608 378.533 940.46 375.543 940.46C372.293 940.46 369.758 941.673 367.938 944.1C366.118 946.483 365.208 949.842 365.208 954.175C365.208 958.812 366.118 962.365 367.938 964.835C369.758 967.305 372.358 968.54 375.738 968.54C377.948 968.54 379.876 967.998 381.523 966.915C383.169 965.788 384.556 964.163 385.683 962.04H392.378C391.728 964.727 390.623 967.045 389.063 968.995C387.546 970.945 385.639 972.44 383.343 973.48C381.089 974.52 378.554 975.04 375.738 975.04C372.098 975.04 368.956 974.217 366.313 972.57C363.713 970.923 361.719 968.54 360.333 965.42C358.946 962.3 358.253 958.552 358.253 954.175C358.253 950.015 358.946 946.44 360.333 943.45C361.763 940.417 363.778 938.077 366.378 936.43C368.978 934.783 372.033 933.96 375.543 933.96C378.879 933.96 381.718 934.74 384.058 936.3C386.398 937.86 388.196 940.135 389.453 943.125C390.709 946.072 391.338 949.647 391.338 953.85C391.338 954.327 391.316 954.825 391.273 955.345C391.273 955.865 391.251 956.363 391.208 956.84H363.648V950.535ZM404.675 963.015L422.81 949.43C425.324 947.567 427.165 945.66 428.335 943.71C429.505 941.717 430.09 939.572 430.09 937.275C430.09 934.372 429.267 932.097 427.62 930.45C425.974 928.76 423.699 927.915 420.795 927.915C418.065 927.915 415.834 928.76 414.1 930.45C412.367 932.14 411.154 934.61 410.46 937.86H403.31C403.484 934.35 404.35 931.338 405.91 928.825C407.514 926.268 409.594 924.318 412.15 922.975C414.75 921.632 417.632 920.96 420.795 920.96C424.175 920.96 427.1 921.653 429.57 923.04C432.084 924.383 434.034 926.268 435.42 928.695C436.807 931.122 437.5 933.982 437.5 937.275C437.5 940.655 436.634 943.797 434.9 946.7C433.167 949.603 430.545 952.333 427.035 954.89L410.98 966.395V967.045H436.46V974H404.675V963.015ZM449.083 974V922H463.643C470.663 922 475.928 924.188 479.438 928.565C482.991 932.898 484.768 939.377 484.768 948C484.768 956.623 482.991 963.123 479.438 967.5C475.928 971.833 470.663 974 463.643 974H449.083ZM456.493 967.045H463.643C468.236 967.045 471.66 965.485 473.913 962.365C476.21 959.202 477.358 954.413 477.358 948C477.358 941.543 476.21 936.755 473.913 933.635C471.66 930.515 468.236 928.955 463.643 928.955H456.493V967.045Z" fill="white"/>
<path d="M911.958 99H947.042V166.304L1005.65 127.7L1025.78 154.732L960.082 198L1025.78 241.268L1005.65 268.3L947.042 229.696V297H911.958V229.696L853.345 268.3L833.222 241.268L898.916 198L833.222 154.732L853.345 127.7L911.958 166.304V99Z" fill="#71BCBE"/>
<path d="M802.572 339.74C803.309 342.123 804.565 343.943 806.342 345.2C808.119 346.457 810.394 347.085 813.167 347.085C816.2 347.085 818.584 346.327 820.317 344.81C822.05 343.293 822.917 341.192 822.917 338.505C822.917 336.555 822.267 334.952 820.967 333.695C819.71 332.395 817.89 331.572 815.507 331.225L809.787 330.38C805.28 329.6 801.879 327.975 799.582 325.505C797.285 323.035 796.137 319.72 796.137 315.56C796.137 312.397 796.852 309.667 798.282 307.37C799.755 305.03 801.792 303.21 804.392 301.91C807.035 300.61 810.09 299.96 813.557 299.96C817.024 299.96 820.057 300.588 822.657 301.845C825.257 303.102 827.294 304.9 828.767 307.24C830.284 309.537 831.15 312.31 831.367 315.56H824.347C823.654 312.787 822.397 310.663 820.577 309.19C818.757 307.673 816.417 306.915 813.557 306.915C810.394 306.915 807.902 307.695 806.082 309.255C804.305 310.772 803.417 312.873 803.417 315.56C803.417 317.553 804.045 319.178 805.302 320.435C806.602 321.692 808.422 322.515 810.762 322.905L816.482 323.75C821.032 324.487 824.455 326.112 826.752 328.625C829.049 331.095 830.197 334.388 830.197 338.505C830.197 341.668 829.482 344.42 828.052 346.76C826.665 349.057 824.694 350.855 822.137 352.155C819.58 353.412 816.59 354.04 813.167 354.04C809.7 354.04 806.667 353.477 804.067 352.35C801.51 351.18 799.474 349.533 797.957 347.41C796.484 345.243 795.66 342.687 795.487 339.74H802.572ZM859.135 354.04C855.581 354.04 852.505 353.217 849.905 351.57C847.305 349.923 845.29 347.583 843.86 344.55C842.43 341.473 841.715 337.855 841.715 333.695C841.715 329.448 842.451 325.787 843.925 322.71C845.398 319.59 847.478 317.185 850.165 315.495C852.895 313.805 856.101 312.96 859.785 312.96C862.991 312.96 865.808 313.632 868.235 314.975C870.661 316.275 872.568 318.138 873.955 320.565C875.341 322.948 876.1 325.787 876.23 329.08H869.665C869.101 326.09 867.931 323.772 866.155 322.125C864.421 320.478 862.211 319.655 859.525 319.655C856.101 319.655 853.458 320.89 851.595 323.36C849.731 325.83 848.8 329.275 848.8 333.695C848.8 337.985 849.71 341.343 851.53 343.77C853.35 346.153 855.885 347.345 859.135 347.345C861.561 347.345 863.598 346.63 865.245 345.2C866.935 343.727 868.105 341.69 868.755 339.09H875.32C875.103 342.123 874.28 344.767 872.85 347.02C871.42 349.23 869.513 350.963 867.13 352.22C864.79 353.433 862.125 354.04 859.135 354.04ZM887.162 314H902.372V316.86H904.322C905.102 315.603 906.164 314.65 907.507 314C908.851 313.307 910.389 312.96 912.122 312.96C915.242 312.96 917.712 314.065 919.532 316.275C921.352 318.442 922.262 321.432 922.262 325.245V330.9H914.852V326.285C914.852 321.908 913.076 319.72 909.522 319.72C907.269 319.72 905.579 320.738 904.452 322.775C903.369 324.768 902.827 327.758 902.827 331.745V346.305H914.917V353H888.332V346.305H895.677V320.695H887.162V314ZM938.135 329.535H961.6L959.195 332.915C959.195 328.538 958.415 325.202 956.855 322.905C955.295 320.608 953.02 319.46 950.03 319.46C946.78 319.46 944.245 320.673 942.425 323.1C940.605 325.483 939.695 328.842 939.695 333.175C939.695 337.812 940.605 341.365 942.425 343.835C944.245 346.305 946.845 347.54 950.225 347.54C952.435 347.54 954.363 346.998 956.01 345.915C957.657 344.788 959.043 343.163 960.17 341.04H966.865C966.215 343.727 965.11 346.045 963.55 347.995C962.033 349.945 960.127 351.44 957.83 352.48C955.577 353.52 953.042 354.04 950.225 354.04C946.585 354.04 943.443 353.217 940.8 351.57C938.2 349.923 936.207 347.54 934.82 344.42C933.433 341.3 932.74 337.552 932.74 333.175C932.74 329.015 933.433 325.44 934.82 322.45C936.25 319.417 938.265 317.077 940.865 315.43C943.465 313.783 946.52 312.96 950.03 312.96C953.367 312.96 956.205 313.74 958.545 315.3C960.885 316.86 962.683 319.135 963.94 322.125C965.197 325.072 965.825 328.647 965.825 332.85C965.825 333.327 965.803 333.825 965.76 334.345C965.76 334.865 965.738 335.363 965.695 335.84H938.135V329.535ZM983.648 329.535H1007.11L1004.71 332.915C1004.71 328.538 1003.93 325.202 1002.37 322.905C1000.81 320.608 998.533 319.46 995.543 319.46C992.293 319.46 989.758 320.673 987.938 323.1C986.118 325.483 985.208 328.842 985.208 333.175C985.208 337.812 986.118 341.365 987.938 343.835C989.758 346.305 992.358 347.54 995.738 347.54C997.948 347.54 999.876 346.998 1001.52 345.915C1003.17 344.788 1004.56 343.163 1005.68 341.04H1012.38C1011.73 343.727 1010.62 346.045 1009.06 347.995C1007.55 349.945 1005.64 351.44 1003.34 352.48C1001.09 353.52 998.554 354.04 995.738 354.04C992.098 354.04 988.956 353.217 986.313 351.57C983.713 349.923 981.719 347.54 980.333 344.42C978.946 341.3 978.253 337.552 978.253 333.175C978.253 329.015 978.946 325.44 980.333 322.45C981.763 319.417 983.778 317.077 986.378 315.43C988.978 313.783 992.033 312.96 995.543 312.96C998.879 312.96 1001.72 313.74 1004.06 315.3C1006.4 316.86 1008.2 319.135 1009.45 322.125C1010.71 325.072 1011.34 328.647 1011.34 332.85C1011.34 333.327 1011.32 333.825 1011.27 334.345C1011.27 334.865 1011.25 335.363 1011.21 335.84H983.648V329.535ZM1024.87 353V314H1032.02V316.925H1033.97C1034.97 315.668 1036.25 314.693 1037.81 314C1039.37 313.307 1041.08 312.96 1042.94 312.96C1045.67 312.96 1048.03 313.567 1050.03 314.78C1052.02 315.993 1053.58 317.705 1054.71 319.915C1055.83 322.125 1056.4 324.725 1056.4 327.715V353H1049.25V329.665C1049.25 326.415 1048.51 323.967 1047.04 322.32C1045.61 320.63 1043.48 319.785 1040.67 319.785C1037.85 319.785 1035.7 320.63 1034.23 322.32C1032.76 323.967 1032.02 326.415 1032.02 329.665V353H1024.87Z" fill="white"/>
<path d="M747.411 260.247C752.518 255.602 752.892 247.696 748.247 242.589C743.602 237.482 735.696 237.108 730.589 241.753L747.411 260.247ZM361.514 582.409C361.187 589.305 366.513 595.16 373.409 595.486L485.783 600.806C492.679 601.133 498.534 595.807 498.86 588.912C499.187 582.016 493.861 576.161 486.965 575.834L387.077 571.105L391.806 471.217C392.133 464.321 386.807 458.466 379.912 458.14C373.016 457.813 367.161 463.139 366.834 470.035L361.514 582.409ZM730.589 241.753L365.589 573.753L382.411 592.247L747.411 260.247L730.589 241.753Z" fill="white"/>
<path d="M1118.13 260.714C1112.77 256.37 1111.94 248.499 1116.29 243.134C1120.63 237.769 1128.5 236.941 1133.87 241.286L1118.13 260.714ZM1548.43 581.693C1549.15 588.559 1544.17 594.71 1537.31 595.432L1425.42 607.193C1418.56 607.915 1412.41 602.934 1411.68 596.068C1410.96 589.202 1415.94 583.052 1422.81 582.33L1522.26 571.875L1511.81 472.423C1511.09 465.558 1516.07 459.407 1522.93 458.685C1529.8 457.963 1535.95 462.944 1536.67 469.81L1548.43 581.693ZM1133.87 241.286L1543.87 573.286L1528.13 592.714L1118.13 260.714L1133.87 241.286Z" fill="white"/>
<path d="M673.374 732V680H691.184C694.477 680 697.337 680.628 699.764 681.885C702.19 683.142 704.075 684.918 705.419 687.215C706.762 689.468 707.434 692.155 707.434 695.275C707.434 698.395 706.762 701.103 705.419 703.4C704.075 705.653 702.19 707.408 699.764 708.665C697.337 709.878 694.477 710.485 691.184 710.485H680.784V732H673.374ZM680.784 703.855H691.444C694.087 703.855 696.167 703.097 697.684 701.58C699.244 700.063 700.024 698.005 700.024 695.405C700.024 692.805 699.244 690.747 697.684 689.23C696.167 687.713 694.087 686.955 691.444 686.955H680.784V703.855ZM742.027 707.625V713.93L730.327 715.75C728.507 716.053 727.142 716.682 726.232 717.635C725.365 718.588 724.932 719.845 724.932 721.405C724.932 722.878 725.473 724.07 726.557 724.98C727.683 725.89 729.113 726.345 730.847 726.345C732.753 726.345 734.487 725.89 736.047 724.98C737.65 724.07 738.928 722.857 739.882 721.34C740.835 719.78 741.312 718.068 741.312 716.205V706.65C741.312 704.137 740.553 702.165 739.037 700.735C737.52 699.305 735.44 698.59 732.797 698.59C730.933 698.59 729.265 698.893 727.792 699.5C726.318 700.107 725.105 700.995 724.152 702.165C723.242 703.335 722.613 704.765 722.267 706.455H715.442C715.658 703.465 716.503 700.887 717.977 698.72C719.493 696.553 721.53 694.885 724.087 693.715C726.643 692.545 729.612 691.96 732.992 691.96C737.845 691.96 741.593 693.195 744.237 695.665C746.923 698.135 748.267 701.645 748.267 706.195V732H741.312V728.425H739.362C738.322 729.898 736.957 731.025 735.267 731.805C733.62 732.585 731.583 732.975 729.157 732.975C726.773 732.975 724.693 732.52 722.917 731.61C721.183 730.657 719.818 729.335 718.822 727.645C717.868 725.955 717.392 723.983 717.392 721.73C717.392 718.48 718.432 715.815 720.512 713.735C722.592 711.612 725.56 710.247 729.417 709.64L742.027 707.625ZM762.124 693H777.334V695.86H779.284C780.064 694.603 781.126 693.65 782.469 693C783.813 692.307 785.351 691.96 787.084 691.96C790.204 691.96 792.674 693.065 794.494 695.275C796.314 697.442 797.224 700.432 797.224 704.245V709.9H789.814V705.285C789.814 700.908 788.038 698.72 784.484 698.72C782.231 698.72 780.541 699.738 779.414 701.775C778.331 703.768 777.789 706.758 777.789 710.745V725.305H789.879V732H763.294V725.305H770.639V699.695H762.124V693ZM813.097 708.535H836.562L834.157 711.915C834.157 707.538 833.377 704.202 831.817 701.905C830.257 699.608 827.982 698.46 824.992 698.46C821.742 698.46 819.207 699.673 817.387 702.1C815.567 704.483 814.657 707.842 814.657 712.175C814.657 716.812 815.567 720.365 817.387 722.835C819.207 725.305 821.807 726.54 825.187 726.54C827.397 726.54 829.325 725.998 830.972 724.915C832.619 723.788 834.005 722.163 835.132 720.04H841.827C841.177 722.727 840.072 725.045 838.512 726.995C836.995 728.945 835.089 730.44 832.792 731.48C830.539 732.52 828.004 733.04 825.187 733.04C821.547 733.04 818.405 732.217 815.762 730.57C813.162 728.923 811.169 726.54 809.782 723.42C808.395 720.3 807.702 716.552 807.702 712.175C807.702 708.015 808.395 704.44 809.782 701.45C811.212 698.417 813.227 696.077 815.827 694.43C818.427 692.783 821.482 691.96 824.992 691.96C828.329 691.96 831.167 692.74 833.507 694.3C835.847 695.86 837.645 698.135 838.902 701.125C840.159 704.072 840.787 707.647 840.787 711.85C840.787 712.327 840.765 712.825 840.722 713.345C840.722 713.865 840.7 714.363 840.657 714.84H813.097V708.535ZM854.32 732V693H861.47V695.925H863.42C864.416 694.668 865.695 693.693 867.255 693C868.815 692.307 870.526 691.96 872.39 691.96C875.12 691.96 877.481 692.567 879.475 693.78C881.468 694.993 883.028 696.705 884.155 698.915C885.281 701.125 885.845 703.725 885.845 706.715V732H878.695V708.665C878.695 705.415 877.958 702.967 876.485 701.32C875.055 699.63 872.931 698.785 870.115 698.785C867.298 698.785 865.153 699.63 863.68 701.32C862.206 702.967 861.47 705.415 861.47 708.665V732H854.32ZM913.482 682.86V693H931.032V699.695H913.482V719.195C913.482 721.492 913.959 723.268 914.912 724.525C915.866 725.738 917.252 726.345 919.072 726.345C920.979 726.345 922.452 725.695 923.492 724.395C924.576 723.052 925.377 721.037 925.897 718.35H932.202C931.986 723.117 930.729 726.757 928.432 729.27C926.136 731.783 922.929 733.04 918.812 733.04C914.826 733.04 911.749 731.848 909.582 729.465C907.416 727.082 906.332 723.745 906.332 719.455V699.695H897.752V693H906.332V682.86H913.482ZM942.355 712.5V706H979.145V712.5H942.355ZM1007.37 733.04C1001.17 733.04 996.513 730.808 993.393 726.345C990.316 721.838 988.778 715.057 988.778 706C988.778 696.943 990.359 690.183 993.523 685.72C996.729 681.213 1001.54 678.96 1007.95 678.96C1011.42 678.96 1014.41 679.697 1016.92 681.17C1019.44 682.643 1021.41 684.81 1022.84 687.67C1024.31 690.487 1025.18 693.932 1025.44 698.005H1018.61C1018.01 694.062 1016.79 691.072 1014.97 689.035C1013.2 686.955 1010.86 685.915 1007.95 685.915C1003.92 685.915 1000.95 687.54 999.048 690.79C997.141 694.04 996.188 699.11 996.188 706C996.188 712.89 997.076 717.96 998.853 721.21C1000.67 724.46 1003.51 726.085 1007.37 726.085C1010.14 726.085 1012.37 725.132 1014.06 723.225C1015.75 721.318 1016.88 718.545 1017.44 714.905H1024.27C1024.01 718.762 1023.18 722.055 1021.8 724.785C1020.41 727.472 1018.48 729.53 1016.01 730.96C1013.59 732.347 1010.7 733.04 1007.37 733.04ZM1036.37 732V676.88H1043.52V695.925H1045.47C1046.47 694.668 1047.75 693.693 1049.31 693C1050.87 692.307 1052.58 691.96 1054.44 691.96C1057.17 691.96 1059.53 692.567 1061.53 693.78C1063.52 694.993 1065.08 696.705 1066.21 698.915C1067.33 701.125 1067.9 703.725 1067.9 706.715V732H1060.75V708.665C1060.75 705.415 1060.01 702.967 1058.54 701.32C1057.11 699.63 1054.98 698.785 1052.17 698.785C1049.35 698.785 1047.2 699.63 1045.73 701.32C1044.26 702.967 1043.52 705.415 1043.52 708.665V732H1036.37ZM1083.96 693H1102.94V725.305H1114.71V732H1083.96V725.305H1095.79V699.695H1083.96V693ZM1098.85 687.215C1097.16 687.215 1095.84 686.76 1094.88 685.85C1093.93 684.897 1093.45 683.597 1093.45 681.95C1093.45 680.303 1093.93 679.025 1094.88 678.115C1095.84 677.162 1097.16 676.685 1098.85 676.685C1100.54 676.685 1101.86 677.162 1102.81 678.115C1103.77 679.025 1104.24 680.303 1104.24 681.95C1104.24 683.597 1103.77 684.897 1102.81 685.85C1101.86 686.76 1100.54 687.215 1098.85 687.215ZM1128.5 676.88H1147.48V725.305H1159.25V732H1128.5V725.305H1140.33V683.575H1128.5V676.88ZM1185.58 733.04C1182.33 733.04 1179.52 732.217 1177.13 730.57C1174.79 728.88 1172.95 726.497 1171.61 723.42C1170.31 720.343 1169.66 716.703 1169.66 712.5C1169.66 708.297 1170.31 704.657 1171.61 701.58C1172.95 698.503 1174.79 696.142 1177.13 694.495C1179.52 692.805 1182.33 691.96 1185.58 691.96C1187.71 691.96 1189.64 692.372 1191.37 693.195C1193.1 694.018 1194.38 695.145 1195.2 696.575H1197.15V676.88H1204.3V732H1197.15V728.425H1195.2C1194.38 729.812 1193.1 730.938 1191.37 731.805C1189.64 732.628 1187.71 733.04 1185.58 733.04ZM1187.08 726.345C1190.37 726.345 1192.91 725.132 1194.68 722.705C1196.5 720.278 1197.41 716.877 1197.41 712.5C1197.41 708.123 1196.5 704.722 1194.68 702.295C1192.91 699.868 1190.37 698.655 1187.08 698.655C1183.83 698.655 1181.29 699.868 1179.47 702.295C1177.7 704.722 1176.81 708.123 1176.81 712.5C1176.81 716.877 1177.7 720.278 1179.47 722.705C1181.29 725.132 1183.83 726.345 1187.08 726.345ZM672.399 810V758H690.014C693.35 758 696.254 758.607 698.724 759.82C701.194 761.033 703.1 762.767 704.444 765.02C705.83 767.273 706.524 769.938 706.524 773.015C706.524 775.918 705.83 778.453 704.444 780.62C703.057 782.787 701.129 784.498 698.659 785.755C696.189 786.968 693.307 787.575 690.014 787.575H679.809V810H672.399ZM699.374 810L685.334 786.275H693.329L707.824 810H699.374ZM679.809 781.14H690.144C692.874 781.14 695.04 780.403 696.644 778.93C698.29 777.457 699.114 775.507 699.114 773.08C699.114 770.61 698.29 768.638 696.644 767.165C695.04 765.692 692.874 764.955 690.144 764.955H679.809V781.14ZM722.072 786.535H745.537L743.132 789.915C743.132 785.538 742.352 782.202 740.792 779.905C739.232 777.608 736.957 776.46 733.967 776.46C730.717 776.46 728.182 777.673 726.362 780.1C724.542 782.483 723.632 785.842 723.632 790.175C723.632 794.812 724.542 798.365 726.362 800.835C728.182 803.305 730.782 804.54 734.162 804.54C736.372 804.54 738.3 803.998 739.947 802.915C741.593 801.788 742.98 800.163 744.107 798.04H750.802C750.152 800.727 749.047 803.045 747.487 804.995C745.97 806.945 744.063 808.44 741.767 809.48C739.513 810.52 736.978 811.04 734.162 811.04C730.522 811.04 727.38 810.217 724.737 808.57C722.137 806.923 720.143 804.54 718.757 801.42C717.37 798.3 716.677 794.552 716.677 790.175C716.677 786.015 717.37 782.44 718.757 779.45C720.187 776.417 722.202 774.077 724.802 772.43C727.402 770.783 730.457 769.96 733.967 769.96C737.303 769.96 740.142 770.74 742.482 772.3C744.822 773.86 746.62 776.135 747.877 779.125C749.133 782.072 749.762 785.647 749.762 789.85C749.762 790.327 749.74 790.825 749.697 791.345C749.697 791.865 749.675 792.363 749.632 792.84H722.072V786.535ZM764.399 754.88H783.379V803.305H795.144V810H764.399V803.305H776.229V761.575H764.399V754.88ZM833.052 785.625V791.93L821.352 793.75C819.532 794.053 818.167 794.682 817.257 795.635C816.39 796.588 815.957 797.845 815.957 799.405C815.957 800.878 816.499 802.07 817.582 802.98C818.709 803.89 820.139 804.345 821.872 804.345C823.779 804.345 825.512 803.89 827.072 802.98C828.675 802.07 829.954 800.857 830.907 799.34C831.86 797.78 832.337 796.068 832.337 794.205V784.65C832.337 782.137 831.579 780.165 830.062 778.735C828.545 777.305 826.465 776.59 823.822 776.59C821.959 776.59 820.29 776.893 818.817 777.5C817.344 778.107 816.13 778.995 815.177 780.165C814.267 781.335 813.639 782.765 813.292 784.455H806.467C806.684 781.465 807.529 778.887 809.002 776.72C810.519 774.553 812.555 772.885 815.112 771.715C817.669 770.545 820.637 769.96 824.017 769.96C828.87 769.96 832.619 771.195 835.262 773.665C837.949 776.135 839.292 779.645 839.292 784.195V810H832.337V806.425H830.387C829.347 807.898 827.982 809.025 826.292 809.805C824.645 810.585 822.609 810.975 820.182 810.975C817.799 810.975 815.719 810.52 813.942 809.61C812.209 808.657 810.844 807.335 809.847 805.645C808.894 803.955 808.417 801.983 808.417 799.73C808.417 796.48 809.457 793.815 811.537 791.735C813.617 789.612 816.585 788.247 820.442 787.64L833.052 785.625ZM867.97 760.86V771H885.52V777.695H867.97V797.195C867.97 799.492 868.446 801.268 869.4 802.525C870.353 803.738 871.74 804.345 873.56 804.345C875.466 804.345 876.94 803.695 877.98 802.395C879.063 801.052 879.865 799.037 880.385 796.35H886.69C886.473 801.117 885.216 804.757 882.92 807.27C880.623 809.783 877.416 811.04 873.3 811.04C869.313 811.04 866.236 809.848 864.07 807.465C861.903 805.082 860.82 801.745 860.82 797.455V777.695H852.24V771H860.82V760.86H867.97ZM901.912 771H920.892V803.305H932.657V810H901.912V803.305H913.742V777.695H901.912V771ZM916.797 765.215C915.107 765.215 913.786 764.76 912.832 763.85C911.879 762.897 911.402 761.597 911.402 759.95C911.402 758.303 911.879 757.025 912.832 756.115C913.786 755.162 915.107 754.685 916.797 754.685C918.487 754.685 919.809 755.162 920.762 756.115C921.716 757.025 922.192 758.303 922.192 759.95C922.192 761.597 921.716 762.897 920.762 763.85C919.809 764.76 918.487 765.215 916.797 765.215ZM960.75 811.04C957.153 811.04 954.033 810.217 951.39 808.57C948.747 806.88 946.688 804.497 945.215 801.42C943.785 798.343 943.07 794.703 943.07 790.5C943.07 786.297 943.785 782.657 945.215 779.58C946.688 776.503 948.747 774.142 951.39 772.495C954.033 770.805 957.153 769.96 960.75 769.96C964.39 769.96 967.51 770.805 970.11 772.495C972.753 774.142 974.79 776.503 976.22 779.58C977.693 782.657 978.43 786.297 978.43 790.5C978.43 794.703 977.693 798.343 976.22 801.42C974.79 804.497 972.753 806.88 970.11 808.57C967.51 810.217 964.39 811.04 960.75 811.04ZM960.75 804.345C964.087 804.345 966.687 803.132 968.55 800.705C970.413 798.278 971.345 794.877 971.345 790.5C971.345 786.123 970.413 782.722 968.55 780.295C966.687 777.868 964.087 776.655 960.75 776.655C957.413 776.655 954.813 777.868 952.95 780.295C951.087 782.722 950.155 786.123 950.155 790.5C950.155 794.877 951.087 798.278 952.95 800.705C954.813 803.132 957.413 804.345 960.75 804.345ZM990.858 810V771H998.008V773.925H999.958C1000.95 772.668 1002.23 771.693 1003.79 771C1005.35 770.307 1007.06 769.96 1008.93 769.96C1011.66 769.96 1014.02 770.567 1016.01 771.78C1018.01 772.993 1019.57 774.705 1020.69 776.915C1021.82 779.125 1022.38 781.725 1022.38 784.715V810H1015.23V786.665C1015.23 783.415 1014.5 780.967 1013.02 779.32C1011.59 777.63 1009.47 776.785 1006.65 776.785C1003.84 776.785 1001.69 777.63 1000.22 779.32C998.744 780.967 998.008 783.415 998.008 786.665V810H990.858ZM1042.74 798.04C1043.35 800.077 1044.45 801.637 1046.06 802.72C1047.66 803.803 1049.72 804.345 1052.23 804.345C1054.83 804.345 1056.82 803.89 1058.21 802.98C1059.6 802.027 1060.29 800.683 1060.29 798.95C1060.29 797.78 1059.73 796.805 1058.6 796.025C1057.47 795.245 1055.81 794.703 1053.6 794.4L1048.85 793.685C1044.6 793.035 1041.46 791.778 1039.43 789.915C1037.39 788.052 1036.37 785.452 1036.37 782.115C1036.37 778.345 1037.76 775.377 1040.53 773.21C1043.35 771.043 1047.2 769.96 1052.1 769.96C1057.08 769.96 1061.03 771.173 1063.93 773.6C1066.83 776.027 1068.37 779.407 1068.55 783.74H1062.05C1061.44 781.443 1060.29 779.688 1058.6 778.475C1056.91 777.262 1054.7 776.655 1051.97 776.655C1049.24 776.655 1047.14 777.132 1045.67 778.085C1044.19 778.995 1043.46 780.317 1043.46 782.05C1043.46 783.22 1044.02 784.195 1045.15 784.975C1046.27 785.755 1047.94 786.297 1050.15 786.6L1054.9 787.315C1059.19 787.965 1062.33 789.222 1064.32 791.085C1066.36 792.948 1067.38 795.548 1067.38 798.885C1067.38 801.398 1066.75 803.565 1065.49 805.385C1064.28 807.205 1062.54 808.613 1060.29 809.61C1058.04 810.563 1055.33 811.04 1052.17 811.04C1047.31 811.04 1043.48 809.892 1040.66 807.595C1037.89 805.298 1036.37 802.113 1036.11 798.04H1042.74ZM1081.88 810V754.88H1089.03V773.925H1090.98C1091.98 772.668 1093.26 771.693 1094.82 771C1096.38 770.307 1098.09 769.96 1099.95 769.96C1102.68 769.96 1105.04 770.567 1107.04 771.78C1109.03 772.993 1110.59 774.705 1111.72 776.915C1112.84 779.125 1113.41 781.725 1113.41 784.715V810H1106.26V786.665C1106.26 783.415 1105.52 780.967 1104.05 779.32C1102.62 777.63 1100.49 776.785 1097.68 776.785C1094.86 776.785 1092.72 777.63 1091.24 779.32C1089.77 780.967 1089.03 783.415 1089.03 786.665V810H1081.88ZM1129.48 771H1148.46V803.305H1160.22V810H1129.48V803.305H1141.31V777.695H1129.48V771ZM1144.36 765.215C1142.67 765.215 1141.35 764.76 1140.4 763.85C1139.44 762.897 1138.97 761.597 1138.97 759.95C1138.97 758.303 1139.44 757.025 1140.4 756.115C1141.35 755.162 1142.67 754.685 1144.36 754.685C1146.05 754.685 1147.37 755.162 1148.33 756.115C1149.28 757.025 1149.76 758.303 1149.76 759.95C1149.76 761.597 1149.28 762.897 1148.33 763.85C1147.37 764.76 1146.05 765.215 1144.36 765.215ZM1172.32 823V771H1179.47V774.575H1181.42C1182.29 773.145 1183.59 772.018 1185.32 771.195C1187.06 770.372 1188.96 769.96 1191.04 769.96C1194.29 769.96 1197.11 770.805 1199.49 772.495C1201.88 774.142 1203.72 776.503 1205.02 779.58C1206.32 782.657 1206.97 786.297 1206.97 790.5C1206.97 794.703 1206.32 798.343 1205.02 801.42C1203.72 804.497 1201.88 806.88 1199.49 808.57C1197.11 810.217 1194.29 811.04 1191.04 811.04C1188.96 811.04 1187.06 810.628 1185.32 809.805C1183.59 808.938 1182.29 807.812 1181.42 806.425H1179.47V823H1172.32ZM1189.55 804.345C1192.8 804.345 1195.31 803.132 1197.09 800.705C1198.91 798.278 1199.82 794.877 1199.82 790.5C1199.82 786.123 1198.91 782.722 1197.09 780.295C1195.31 777.868 1192.8 776.655 1189.55 776.655C1186.26 776.655 1183.7 777.868 1181.88 780.295C1180.1 782.722 1179.21 786.123 1179.21 790.5C1179.21 794.877 1180.1 798.278 1181.88 800.705C1183.7 803.132 1186.26 804.345 1189.55 804.345Z" fill="white"/>
<path d="M641 852.5C636.858 852.5 633.5 855.858 633.5 860C633.5 864.142 636.858 867.5 641 867.5V852.5ZM1259.33 860L1216.03 816.699L1172.73 860L1216.03 903.301L1259.33 860ZM641 867.5H1216.03V852.5H641V867.5Z" fill="white"/>
</svg>
